<svg width="32" height="33" viewBox="0 0 32 33" fill="none" xmlns="http://www.w3.org/2000/svg">
<path d="M16 9C16.2761 9 16.5 8.77614 16.5 8.5C16.5 8.22386 16.2761 8 16 8C15.7239 8 15.5 8.22386 15.5 8.5C15.5 8.77614 15.7239 9 16 9Z" fill="#7164F0"/>
<path d="M19 9C19.2761 9 19.5 8.77614 19.5 8.5C19.5 8.22386 19.2761 8 19 8C18.7239 8 18.5 8.22386 18.5 8.5C18.5 8.77614 18.7239 9 19 9Z" fill="#7164F0"/>
<path d="M19.3945 10.3289L19.447 10.2234L18.5525 9.77588L18.5 9.88188C18.3095 10.2629 17.9265 10.4999 17.5 10.4999C17.0735 10.4999 16.6905 10.2629 16.5 9.88188L16.4475 9.77638L15.553 10.2239L15.6055 10.3289C15.9665 11.0514 16.6925 11.4999 17.5 11.4999C18.3075 11.4999 19.0335 11.0514 19.3945 10.3289Z" fill="#7164F0"/>
<path d="M29.5 4.5C28.397 4.5 27.5 5.397 27.5 6.5V6.5855C26.918 6.792 26.5 7.348 26.5 8V8.0855C26.5 8.486 26.6565 8.863 26.9395 9.1465L27.5 9.707V13.243C27.227 13.093 26.9185 13 26.586 13C26.0745 13 25.594 13.199 25.2325 13.561L24.793 14H19.89L19.6125 12.8905C20.33 12.4415 20.8955 11.7735 21.2135 10.9785C22.4905 10.868 23.5 9.8055 23.5 8.5C23.5 8.0325 23.369 7.5845 23.1195 7.188C23.369 6.6235 23.5 6.0165 23.5 5.4155C23.5 2.9805 21.519 1 19.0845 1H15.9155C13.481 1 11.5 2.9805 11.5 5.4155C11.5 6.0165 11.631 6.6235 11.8805 7.188C11.631 7.5845 11.5 8.0325 11.5 8.5C11.5 9.8055 12.5095 10.868 13.7865 10.9785C14.104 11.7735 14.6695 12.4415 15.3875 12.8905L15.11 14H7.5V9.707L8.0605 9.1465C8.344 8.8635 8.5 8.4865 8.5 8.0855V8C8.5 7.8455 8.4715 7.694 8.4255 7.5485C9.0735 7.0965 9.5 6.348 9.5 5.5C9.5 4.1215 8.3785 3 7 3C5.6215 3 4.5 4.1215 4.5 5.5V5.793L0.957 9.336C0.662 9.6305 0.5 10.0225 0.5 10.4395C0.5 11.3 1.2 12 2.0605 12C2.4715 12 2.8735 11.8335 3.164 11.543L3.5 11.207V16C3.5 17.6545 4.8455 19 6.5 19H10.5V23.5625C9.8685 24.417 9.5 25.4685 9.5 26.5935C9.5 27.9565 10.031 29.238 10.9945 30.2015L11.298 30.505C12.262 31.469 13.5435 32 14.9065 32C16.5365 32 18.015 31.2315 18.9575 30H24.5V19.707L25.207 19H28.5C30.1545 19 31.5 17.6545 31.5 16V6.5C31.5 5.397 30.603 4.5 29.5 4.5ZM25.9395 14.2675C26.11 14.0975 26.345 14 26.586 14C27.09 14 27.5 14.41 27.5 14.9145C27.5 15.1585 27.405 15.3885 27.2325 15.561L26 16.793L24.707 15.5L25.9395 14.2675ZM19 23.793L17.707 22.5L24 16.207L25.293 17.5L19 23.793ZM18.2225 19.567C18.4045 19.295 18.5 18.978 18.5 18.6515C18.5 17.802 17.8535 17.109 17.028 17.0185L17.5 16.6405L20.085 18.7085L18.08 20.7135C17.945 20.3495 17.9825 19.927 18.2225 19.567ZM20.411 18.382L21.3775 15H23.7935L20.411 18.382ZM20.337 15L19.7255 17.14L18.316 16.0125L19.666 15H20.337ZM22.5 5.4155C22.5 5.9565 22.361 6.506 22.0975 7.005L21.9425 7.2985L22.1535 7.555C22.3115 7.748 22.5 8.068 22.5 8.5C22.5 9.159 22.07 9.7135 21.4785 9.9145C21.4925 9.7785 21.5 9.64 21.5 9.5V7.383C21.5 6.628 20.935 5.988 20.186 5.8945L18.814 5.723C18.065 5.6295 17.5 4.9895 17.5 4.2345V2H19.0845C20.968 2 22.5 3.532 22.5 5.4155ZM12.5 8.5C12.5 8.068 12.6885 7.748 12.846 7.5555L13.057 7.299L12.902 7.0055C12.639 6.506 12.5 5.9565 12.5 5.4155C12.5 3.532 14.032 2 15.9155 2H16.5V4.2345C16.5 4.411 16.5185 4.5835 16.5535 4.7505L14.9505 5.209C14.0965 5.452 13.5 6.243 13.5 7.1315V9.5C13.5 9.64 13.5075 9.7785 13.5215 9.9145C12.93 9.7135 12.5 9.159 12.5 8.5ZM14.5 9.5V7.1315C14.5 6.6875 14.7985 6.292 15.225 6.17L16.958 5.675C17.352 6.2325 17.9695 6.6255 18.69 6.7155L20.062 6.887C20.3115 6.918 20.5 7.131 20.5 7.383V9.5C20.5 11.1545 19.1545 12.5 17.5 12.5C15.8455 12.5 14.5 11.1545 14.5 9.5ZM17.5 13.5C17.914 13.5 18.3135 13.4365 18.6895 13.3195L18.9345 14.2995L17.5 15.375L16.0655 14.2995L16.3105 13.3195C16.6865 13.4365 17.086 13.5 17.5 13.5ZM15.3335 15L16.6835 16.0125L15.274 17.14L14.663 15H15.3335ZM7 4C7.827 4 8.5 4.673 8.5 5.5C8.5 6.327 7.827 7 7 7H6.707L5.5 5.793V5.5C5.5 4.673 6.173 4 7 4ZM2.457 10.836C2.3525 10.94 2.208 11 2.0605 11C1.7515 11 1.5 10.7485 1.5 10.4395C1.5 10.2895 1.558 10.149 1.664 10.043L5 6.707L5.793 7.5L2.457 10.836ZM4.5 16V10.207L6.707 8H7C7.168 8 7.3315 7.982 7.49 7.9505C7.492 7.9685 7.5 7.9805 7.5 8V8.0855C7.5 8.219 7.448 8.345 7.3535 8.4395L6.5 9.293V15H8.5V18H6.5C5.397 18 4.5 17.103 4.5 16ZM9.5 18V15H13.6225L14.7255 18.86L15.0545 18.597L14.1405 21.034C14.0935 21.1595 14.0215 21.2715 13.927 21.366C13.808 21.485 13.658 21.57 13.494 21.611L13.365 21.643C12.6705 21.8165 12.041 22.1285 11.5 22.5425V18H9.5ZM14.9065 31C13.811 31 12.7805 30.573 12.0055 29.7985L11.702 29.495C10.927 28.72 10.5005 27.69 10.5005 26.594C10.5005 24.708 11.7785 23.0715 13.608 22.614L13.7375 22.582C14.0775 22.497 14.388 22.321 14.6355 22.0735C14.8315 21.877 14.98 21.646 15.078 21.386L16.189 18.4235C16.2825 18.17 16.528 18 16.798 18H16.849C17.208 18 17.5 18.292 17.5 18.6515C17.5 18.7805 17.462 18.9055 17.3685 19.046C16.8775 19.7825 16.8855 20.727 17.3385 21.455L16.293 22.5L17.293 23.5L14.75 26.043L13.8535 25.1465L13.1465 25.8535L14.043 26.75L13.25 27.543L12.3535 26.6465L11.6465 27.3535L12.543 28.25L11.8965 28.8965L12.6035 29.6035L13.25 28.957L14.1465 29.8535L14.8535 29.1465L13.957 28.25L14.75 27.457L15.6465 28.3535L16.3535 27.6465L15.457 26.75L18 24.207L19 25.207L20.0455 24.1615C20.7735 24.6135 21.7225 24.6195 22.487 24.1095C22.5945 24.038 22.7195 24 22.8485 24C23.208 24 23.5 24.292 23.5 24.6515C23.5 24.952 23.311 25.2245 23.03 25.3295L20.115 26.423C19.8545 26.5205 19.6235 26.67 19.4275 26.866C19.18 27.114 19.0035 27.424 18.919 27.7635L18.887 27.8925C18.429 29.722 16.7925 31 14.9065 31ZM19.5545 29C19.6785 28.725 19.781 28.4365 19.8565 28.1355L19.8885 28.0065C19.9295 27.8425 20.0145 27.693 20.1345 27.573C20.2285 27.4785 20.34 27.4065 20.466 27.3595L23.3805 26.266C23.422 26.2505 23.46 26.229 23.4995 26.2105V29H19.5545ZM23.5 23.135C23.3 23.0485 23.08 23 22.8485 23C22.5215 23 22.2045 23.096 21.8995 23.2995C21.5625 23.5245 21.1475 23.5575 20.7865 23.421L23.5 20.707V23.135ZM30.5 16C30.5 17.103 29.603 18 28.5 18H26.207L27.9395 16.2675C28.2805 15.9265 28.4705 15.4785 28.4915 15H28.5V9.293L27.6465 8.4395C27.552 8.345 27.5 8.219 27.5 8.0855V8C27.5 7.7245 27.724 7.5 28 7.5H28.5V6.5C28.5 5.9485 28.9485 5.5 29.5 5.5C30.0515 5.5 30.5 5.9485 30.5 6.5V16Z" fill="#7164F0"/>
</svg>
