<svg width="16" height="17" viewBox="0 0 16 17" fill="none" xmlns="http://www.w3.org/2000/svg">
<path d="M8.66659 15.1668H3.33325C1.99992 15.1668 1.33325 14.5002 1.33325 13.1668V7.8335C1.33325 6.50016 1.99992 5.8335 3.33325 5.8335H6.66659V13.1668C6.66659 14.5002 7.33325 15.1668 8.66659 15.1668Z" stroke="#465BC8" stroke-miterlimit="10" stroke-linecap="round" stroke-linejoin="round"/>
<path d="M6.73991 3.1665C6.68658 3.3665 6.66659 3.5865 6.66659 3.83317V5.83317H3.33325V4.49984C3.33325 3.7665 3.93325 3.1665 4.66659 3.1665H6.73991Z" stroke="#465BC8" stroke-miterlimit="10" stroke-linecap="round" stroke-linejoin="round"/>
<path d="M9.33325 5.8335V9.16683" stroke="#465BC8" stroke-miterlimit="10" stroke-linecap="round" stroke-linejoin="round"/>
<path d="M12 5.8335V9.16683" stroke="#465BC8" stroke-miterlimit="10" stroke-linecap="round" stroke-linejoin="round"/>
<path d="M11.3333 11.8335H9.99992C9.63325 11.8335 9.33325 12.1335 9.33325 12.5002V15.1668H11.9999V12.5002C11.9999 12.1335 11.6999 11.8335 11.3333 11.8335Z" stroke="#465BC8" stroke-miterlimit="10" stroke-linecap="round" stroke-linejoin="round"/>
<path d="M4 9.1665V11.8332" stroke="#465BC8" stroke-miterlimit="10" stroke-linecap="round" stroke-linejoin="round"/>
<path d="M6.66675 13.1668V3.8335C6.66675 2.50016 7.33341 1.8335 8.66675 1.8335H12.6667C14.0001 1.8335 14.6667 2.50016 14.6667 3.8335V13.1668C14.6667 14.5002 14.0001 15.1668 12.6667 15.1668H8.66675C7.33341 15.1668 6.66675 14.5002 6.66675 13.1668Z" stroke="#465BC8" stroke-miterlimit="10" stroke-linecap="round" stroke-linejoin="round"/>
</svg>
