<svg width="32" height="32" viewBox="0 0 32 32" fill="none" xmlns="http://www.w3.org/2000/svg">
<g clip-path="url(#clip0_1924_8211)">
<path d="M16.0017 15.389C12.9659 15.389 10.4961 12.9192 10.4961 9.88343C10.4961 6.8477 12.9659 4.37787 16.0017 4.37787C19.0377 4.37787 21.5072 6.8477 21.5072 9.88343C21.5072 12.9192 19.0374 15.389 16.0017 15.389ZM16.0017 5.7001C13.6948 5.7001 11.8183 7.57694 11.8183 9.88349C11.8183 12.19 13.6951 14.0669 16.0017 14.0669C18.3082 14.0669 20.185 12.19 20.185 9.88349C20.185 7.57694 18.3082 5.7001 16.0017 5.7001Z" fill="#7164F0"/>
<path d="M15.9997 27.6221C12.6073 27.6221 9.41099 26.3115 6.99901 23.9319C6.87106 23.8056 6.80002 23.6328 6.80236 23.453C6.81987 22.0519 7.14415 20.7095 7.76625 19.4637C9.33537 16.3209 12.49 14.3687 15.9998 14.3687C21.0108 14.3687 25.1386 18.4439 25.2011 23.453C25.2034 23.6328 25.1323 23.8057 25.0041 23.9319C22.5924 26.3118 19.3947 27.6221 15.9997 27.6221ZM8.13278 23.1882C10.2701 25.1969 13.0523 26.2999 15.9997 26.2999C18.9495 26.2999 21.7333 25.1972 23.8706 23.1885C23.67 19.0289 20.1966 15.6904 15.9997 15.6904C12.9944 15.6904 10.2925 17.3623 8.94918 20.0539C8.45833 21.037 8.18435 22.0898 8.13278 23.1882Z" fill="#7164F0"/>
<path d="M26.0922 14.1399C24.0865 14.1399 22.4545 12.508 22.4545 10.5022C22.4545 8.4965 24.0865 6.86496 26.0922 6.86496C28.0979 6.86496 29.7299 8.49688 29.7299 10.5026C29.7299 12.5084 28.0983 14.1399 26.0922 14.1399ZM26.0922 8.18713C24.8156 8.18713 23.7768 9.226 23.7768 10.5026C23.7768 11.7791 24.8156 12.818 26.0922 12.818C27.3688 12.818 28.4076 11.7791 28.4076 10.5026C28.4076 9.226 27.3691 8.18713 26.0922 8.18713Z" fill="#7164F0"/>
<path d="M26.0895 21.6565C25.333 21.6565 24.5846 21.5524 23.8653 21.3467C23.514 21.2465 23.3107 20.8806 23.4111 20.5296C23.5116 20.1782 23.8766 19.9743 24.2282 20.0754C24.8295 20.2469 25.4559 20.3339 26.0895 20.3339C27.7985 20.3339 29.4125 19.7098 30.6656 18.5708C30.4901 16.2048 28.4936 14.3246 26.0895 14.3246C24.341 14.3246 22.7692 15.2978 21.9879 16.8642C21.9475 16.9438 21.6048 17.7689 21.0141 17.4608C20.3761 17.1279 20.752 16.3792 20.8055 16.2721C21.8117 14.2558 23.8366 13.0024 26.0895 13.0024C29.3074 13.0024 31.959 15.6186 32 18.8348C32.0023 19.0143 31.9312 19.1872 31.8034 19.3134C30.2745 20.8244 28.245 21.6565 26.0895 21.6565Z" fill="#7164F0"/>
<path d="M5.90686 14.1399C3.90112 14.1399 2.2692 12.508 2.2692 10.5022C2.2692 8.4965 3.90112 6.86496 5.90686 6.86496C7.9126 6.86496 9.54452 8.49688 9.54452 10.5026C9.54452 12.5084 7.9126 14.1399 5.90686 14.1399ZM5.90686 8.18713C4.62998 8.18713 3.59143 9.226 3.59143 10.5026C3.59143 11.7791 4.6303 12.818 5.90686 12.818C7.18342 12.818 8.22228 11.7791 8.22228 10.5026C8.22228 9.226 7.18342 8.18713 5.90686 8.18713Z" fill="#7164F0"/>
<path d="M5.90685 21.6564C3.75007 21.6564 1.72181 20.8241 0.196082 19.3132C0.0685149 19.1869 -0.00221476 19.0148 6.88903e-05 18.8352C0.0410477 15.6194 2.69103 13.0028 5.90685 13.0028C8.16183 13.0028 10.1884 14.2562 11.1955 16.2742C11.2474 16.3777 11.5396 17.2149 10.9939 17.4546C10.4547 17.6913 10.0534 16.9462 10.0132 16.8655C9.23076 15.2981 7.65771 14.325 5.90717 14.325C3.50509 14.325 1.50994 16.2051 1.33473 18.5715C2.58516 19.7102 4.19754 20.3343 5.90717 20.3343C6.54545 20.3343 7.17313 20.246 7.77278 20.0728C8.12351 19.9707 8.49004 20.1733 8.59153 20.524C8.69303 20.8747 8.49105 21.2413 8.14032 21.3428C7.4211 21.5506 6.66946 21.6564 5.90685 21.6564Z" fill="#7164F0"/>
</g>
<defs>
<clipPath id="clip0_1924_8211">
<rect width="32" height="32" fill="white"/>
</clipPath>
</defs>
</svg>
