<svg width="32" height="33" viewBox="0 0 32 33" fill="none" xmlns="http://www.w3.org/2000/svg">
<g clip-path="url(#clip0_1924_8225)">
<path d="M10.9102 14.2646H3.18081C2.39821 14.2639 1.64786 13.9527 1.09439 13.3994C0.540922 12.8461 0.229545 12.0959 0.228577 11.3133V3.67989C0.229545 2.89729 0.540922 2.14704 1.09439 1.59374C1.64786 1.04045 2.39821 0.729302 3.18081 0.728577H10.9102C11.6926 0.729544 12.4427 1.0408 12.996 1.59407C13.5493 2.14733 13.8605 2.89745 13.8615 3.67989V11.3133C13.8605 12.0957 13.5493 12.8458 12.996 13.3991C12.4427 13.9524 11.6926 14.2636 10.9102 14.2646ZM3.18081 3.01429C3.00427 3.01453 2.83502 3.08471 2.7101 3.20945C2.58518 3.3342 2.51477 3.50335 2.51429 3.67989V11.3133C2.51477 11.4898 2.58518 11.659 2.7101 11.7837C2.83502 11.9084 3.00427 11.9786 3.18081 11.9789H10.9102C11.0866 11.9786 11.2558 11.9084 11.3806 11.7836C11.5053 11.6589 11.5755 11.4897 11.5758 11.3133V3.67989C11.5755 3.50344 11.5053 3.33428 11.3806 3.20951C11.2558 3.08474 11.0866 3.01453 10.9102 3.01429H3.18081Z" fill="#7164F0"/>
<path d="M10.9477 32.2714H3.21828C2.4356 32.2704 1.68525 31.9591 1.13181 31.4057C0.578368 30.8522 0.26702 30.1019 0.266052 29.3192V21.6867C0.26702 20.9041 0.578398 20.1539 1.13186 19.6006C1.68533 19.0473 2.43568 18.7361 3.21828 18.7354H10.9477C11.7298 18.7369 12.4794 19.0483 13.0323 19.6015C13.5852 20.1548 13.8962 20.9046 13.8971 21.6867V29.3192C13.8964 30.1015 13.5855 30.8515 13.0326 31.405C12.4797 31.9584 11.7299 32.27 10.9477 32.2714ZM3.21828 21.0211C3.04174 21.0214 2.87249 21.0915 2.74757 21.2163C2.62266 21.341 2.55225 21.5102 2.55177 21.6867V29.3192C2.55201 29.4959 2.62231 29.6653 2.74725 29.7902C2.87219 29.9152 3.04158 29.9855 3.21828 29.9857H10.9477C11.1242 29.9852 11.2933 29.9148 11.4181 29.7899C11.5428 29.665 11.613 29.4957 11.6133 29.3192V21.6867C11.613 21.5103 11.5428 21.3411 11.418 21.2163C11.2933 21.0916 11.1241 21.0214 10.9477 21.0211H3.21828Z" fill="#7164F0"/>
<path d="M28.8201 32.2714H21.0907C20.3081 32.2704 19.5577 31.9591 19.0043 31.4057C18.4508 30.8522 18.1395 30.1019 18.1385 29.3192V21.6867C18.1395 20.9041 18.4509 20.1539 19.0043 19.6006C19.5578 19.0473 20.3081 18.7361 21.0907 18.7354H28.8201C29.6026 18.7364 30.3527 19.0476 30.9059 19.6009C31.4592 20.1542 31.7705 20.9043 31.7714 21.6867V29.3192C31.7707 30.1018 31.4596 30.8521 30.9063 31.4056C30.353 31.9591 29.6027 32.2704 28.8201 32.2714ZM21.0907 21.0257C20.9142 21.0259 20.745 21.0961 20.62 21.2209C20.4951 21.3456 20.4247 21.5148 20.4242 21.6913V29.3238C20.4245 29.5005 20.4948 29.6698 20.6197 29.7948C20.7447 29.9197 20.9141 29.99 21.0907 29.9903H28.8201C28.9967 29.9898 29.1658 29.9194 29.2906 29.7945C29.4153 29.6695 29.4855 29.5003 29.4857 29.3238V21.6867C29.4855 21.5103 29.4153 21.3411 29.2905 21.2163C29.1657 21.0916 28.9966 21.0214 28.8201 21.0211L21.0907 21.0257Z" fill="#7164F0"/>
<path d="M24.96 14.2646C23.6241 14.2547 22.321 13.8494 21.215 13.1C20.109 12.3506 19.2496 11.2905 18.7453 10.0533C18.2409 8.81623 18.1141 7.45748 18.3808 6.14839C18.6475 4.8393 19.2958 3.63847 20.2439 2.69729C21.1921 1.75611 22.3977 1.11672 23.7087 0.859711C25.0198 0.602704 26.3775 0.739592 27.6109 1.25312C28.8442 1.76664 29.8979 2.63382 30.6392 3.74532C31.3804 4.85682 31.776 6.16289 31.776 7.49887C31.767 9.29921 31.0445 11.0225 29.7667 12.2908C28.489 13.5592 26.7604 14.269 24.96 14.2646ZM24.96 3.01887C24.0761 3.02879 23.215 3.29995 22.4849 3.79821C21.7548 4.29647 21.1884 4.99957 20.857 5.819C20.5257 6.63844 20.4441 7.53759 20.6226 8.40329C20.8011 9.26899 21.2317 10.0625 21.8602 10.6841C22.4887 11.3056 23.287 11.7273 24.1546 11.8961C25.0222 12.0649 25.9204 11.9733 26.7361 11.6328C27.5518 11.2923 28.2485 10.7181 28.7386 9.98252C29.2287 9.24691 29.4902 8.38278 29.4903 7.49887C29.483 6.3038 29.0019 5.16042 28.1526 4.31966C27.3033 3.47889 26.1551 3.00943 24.96 3.0143V3.01887Z" fill="#7164F0"/>
</g>
<defs>
<clipPath id="clip0_1924_8225">
<rect width="32" height="32" fill="white" transform="translate(0 0.5)"/>
</clipPath>
</defs>
</svg>
