<svg width="110" height="110" viewBox="0 0 110 110" fill="none" xmlns="http://www.w3.org/2000/svg">
<g clip-path="url(#clip0_296_4638)">
<path d="M55 110C85.3757 110 110 85.3757 110 55C110 24.6243 85.3757 0 55 0C24.6243 0 0 24.6243 0 55C0 85.3757 24.6243 110 55 110Z" fill="#606DF4"/>
<path fill-rule="evenodd" clip-rule="evenodd" d="M37.8071 81.8503L17.7559 60.2401C16.4257 58.8148 15.7151 56.9201 15.7801 54.9716C15.845 53.0231 16.6802 51.18 18.1023 49.8464C19.5332 48.5217 21.4312 47.8188 23.3798 47.8918C25.3284 47.9649 27.1684 48.808 28.496 50.2362L44 66.8228L68.5551 43.87C68.7745 43.6685 69.0059 43.4805 69.248 43.3071L80.7677 32.5236C82.193 31.1934 84.0877 30.4828 86.0362 30.5478C87.9847 30.6127 89.8279 31.4479 91.1614 32.87C92.4916 34.2953 93.2021 36.19 93.1372 38.1385C93.0722 40.087 92.2371 41.9302 90.8149 43.2637L55.5197 76.1771L43.2638 87.5669L37.8504 81.7637L37.8071 81.8503Z" fill="white"/>
</g>
<defs>
<clipPath id="clip0_296_4638">
<rect width="110" height="110" fill="white"/>
</clipPath>
</defs>
</svg>
