<svg width="32" height="32" viewBox="0 0 32 32" fill="none" xmlns="http://www.w3.org/2000/svg">
<g clip-path="url(#clip0_1924_8192)">
<path d="M15.7424 13.2996C15.7424 11.5745 14.2361 10.6345 12.7424 10.6345C11.2749 10.6345 9.83276 11.5359 9.83276 13.1064C9.83276 13.9177 10.2192 14.1494 10.7341 14.1494C11.3906 14.1494 11.7898 13.7888 11.7898 13.4155C11.7898 12.7073 12.2405 12.45 12.7554 12.45C13.4763 12.45 13.7339 12.9521 13.7339 13.364C13.7339 14.999 9.67847 16.1577 9.67847 18.1792V19.428C9.67847 19.8013 10.1934 20.0459 10.554 20.0459H15.1372C15.459 20.0459 15.7424 19.6211 15.7424 19.1577C15.7424 18.6941 15.459 18.2949 15.1372 18.2949H11.7642V18.1792C11.7642 17.0076 15.7424 16.0935 15.7424 13.2996Z" fill="#7164F0"/>
<path d="M20.4416 20.0459C20.9438 20.0459 21.4458 19.8398 21.4458 19.428V18.0632H21.9995C22.3083 18.0632 22.6174 17.5999 22.6174 17.1362C22.6174 16.6729 22.4116 16.2092 21.9995 16.2092H21.4458V15.3081C21.4458 14.8833 20.9438 14.7029 20.4416 14.7029C19.9397 14.7029 19.4375 14.8833 19.4375 15.3081V16.2092H18.3303L20.6091 11.6389C20.6477 11.5486 20.6733 11.4714 20.6733 11.3943C20.6733 10.9307 20.0168 10.6345 19.6694 10.6345C19.3474 10.6345 19.0254 10.7761 18.8323 11.1497L15.8584 16.9817C15.6052 17.4458 15.8203 18.0632 16.4248 18.0632H19.4375V19.428C19.4375 19.8398 19.9397 20.0459 20.4416 20.0459Z" fill="#7164F0"/>
<path d="M30.75 14.75C30.0596 14.75 29.5 15.3096 29.5 16C29.5 23.4612 23.4622 29.5 16 29.5C8.53882 29.5 2.5 23.4622 2.5 16C2.5 8.53882 8.53784 2.5 16 2.5C18.7368 2.5 21.2991 3.31006 23.4663 4.75H22.0928C21.4023 4.75 20.8428 5.30957 20.8428 6C20.8428 6.69043 21.4023 7.25 22.0928 7.25H26.8428C27.533 7.25 28.0928 6.68164 28.0928 6V1.25C28.0928 0.55957 27.533 0 26.8428 0C26.1523 0 25.5928 0.55957 25.5928 1.25V3.19189C22.949 1.20801 19.626 0 16 0C7.15723 0 0 7.15601 0 16C0 24.8428 7.15601 32 16 32C24.8428 32 32 24.844 32 16C32 15.3096 31.4404 14.75 30.75 14.75Z" fill="#7164F0"/>
</g>
<defs>
<clipPath id="clip0_1924_8192">
<rect width="32" height="32" fill="white"/>
</clipPath>
</defs>
</svg>
