<svg width="32" height="33" viewBox="0 0 32 33" fill="none" xmlns="http://www.w3.org/2000/svg">
<g clip-path="url(#clip0_1807_8474)">
<path d="M30.2221 29.4524C29.382 29.4524 28.6982 30.1362 28.6982 30.9762C28.6982 31.8162 29.382 32.5 30.2221 32.5C31.0621 32.5 31.7459 31.8162 31.7459 30.9762C31.7459 30.1362 31.0621 29.4524 30.2221 29.4524ZM30.2221 31.4841C29.9423 31.4841 29.7141 31.2565 29.7141 30.9762C29.7141 30.6959 29.9423 30.4683 30.2221 30.4683C30.5018 30.4683 30.73 30.6959 30.73 30.9762C30.73 31.2565 30.5018 31.4841 30.2221 31.4841Z" fill="#7164F0"/>
<path d="M3.30153 2.02381C3.30153 1.18378 2.61775 0.5 1.77772 0.5C0.937686 0.5 0.253906 1.18378 0.253906 2.02381C0.253906 2.86384 0.937686 3.54762 1.77772 3.54762C2.61775 3.54762 3.30153 2.86384 3.30153 2.02381ZM1.26978 2.02381C1.26978 1.74405 1.49795 1.51587 1.77772 1.51587C2.05748 1.51587 2.28565 1.74405 2.28565 2.02381C2.28565 2.30357 2.05748 2.53175 1.77772 2.53175C1.49795 2.53175 1.26978 2.30357 1.26978 2.02381Z" fill="#7164F0"/>
<path d="M27.5407 20.6291L26.5375 18.6229C26.7503 18.1911 26.9326 17.7548 27.0824 17.3206L29.2062 16.6125V10.8005L27.0824 10.0924C26.9331 9.65811 26.7503 9.22185 26.5375 8.79005L27.5417 6.78187L23.4323 2.67249L21.4242 3.67671C20.9924 3.46391 20.5561 3.28112 20.1218 3.13182L19.4137 1.00806H13.6017L12.8937 3.13182C12.4594 3.28112 12.0231 3.46391 11.5913 3.67671L9.58314 2.67249L5.47376 6.78187L6.47798 8.79005C6.26518 9.22185 6.0824 9.65811 5.93309 10.0924L3.80933 10.8005V16.612L5.93309 17.3198C6.0814 17.7511 6.26171 18.1834 6.47252 18.6117L5.81925 19.8017H2.79346V29.9604H6.34901V28.4366H10.2022L11.726 29.9604H14.476V30.4684C14.476 31.5889 15.3872 32.5001 16.5077 32.5001C17.6283 32.5001 18.5395 31.5889 18.5395 30.4684V29.9604H22.0955C22.9356 29.9604 23.6194 29.2767 23.6194 28.4366C23.6194 28.045 23.4666 27.6911 23.2233 27.4208C23.4671 27.1504 23.6194 26.7965 23.6194 26.4049C23.6194 26.0133 23.4666 25.6593 23.2233 25.389C23.4172 25.1737 23.5497 24.9049 23.596 24.6053L27.5407 20.6291ZM7.49757 18.3865C7.21806 17.8498 6.99013 17.3042 6.81975 16.7657L6.74162 16.519L4.8252 15.8798V11.5326L6.74162 10.894L6.81925 10.6467C6.98889 10.1088 7.21707 9.56312 7.49683 9.02641L7.61637 8.79625L6.70963 6.98251L9.78329 3.90885L11.597 4.8156L11.8272 4.6963C12.3644 4.41629 12.9095 4.18836 13.4475 4.01847L13.6947 3.94084L14.3344 2.02393H18.6816L19.3202 3.94035L19.5675 4.01798C20.1055 4.18762 20.6511 4.41579 21.1878 4.69556L21.418 4.8151L23.2317 3.90835L26.3054 6.98202L25.3986 8.79576L25.5179 9.02591C25.7979 9.56312 26.0258 10.1083 26.1957 10.6462L26.2734 10.8935L28.1903 11.5331V15.8803L26.2739 16.519L26.1957 16.7657C26.0254 17.3042 25.7974 17.8498 25.5179 18.3865L25.3986 18.6167L26.3064 20.4317L23.3049 23.4562C23.2791 23.4222 23.2515 23.3888 23.2233 23.3573C23.4671 23.0869 23.6194 22.733 23.6194 22.3414C23.6194 21.549 23.0092 20.9039 22.2357 20.8317C24.3904 19.1048 25.6506 16.5133 25.6506 13.7065C25.6506 8.6653 21.5489 4.56361 16.5077 4.56361C11.4666 4.56361 7.36489 8.6653 7.36489 13.7065C7.36489 16.4793 8.62555 19.0877 10.7654 20.8176H6.42069L7.62282 18.6274L7.49757 18.3865ZM22.6035 26.4049C22.6035 26.6851 22.3753 26.9128 22.0955 26.9128H18.0316C17.7518 26.9128 17.5236 26.6851 17.5236 26.4049C17.5236 26.1246 17.7518 25.8969 18.0316 25.8969H22.0955C22.3753 25.8969 22.6035 26.1246 22.6035 26.4049ZM15.2816 13.7065H17.7339L18.5395 12.9009V10.6589C19.0998 10.6589 19.5554 11.1145 19.5554 11.6747V14.0041L17.8212 15.7382H15.1943L13.4601 14.0041V11.6747C13.4601 11.1145 13.9157 10.6589 14.476 10.6589V12.9009L15.2816 13.7065ZM15.4919 16.7541H17.5236V18.7858H15.4919V16.7541ZM18.5395 16.4565L20.5712 14.4247V11.6747C20.5712 10.5542 19.66 9.64298 18.5395 9.64298H17.5236V12.4803L17.3133 12.6906H15.7022L15.4919 12.4803V9.64298H14.476C13.3555 9.64298 12.4443 10.5542 12.4443 11.6747V14.4247L14.476 16.4565V18.7858H13.2498L13.2178 18.8178C11.4837 17.6988 10.4125 15.7804 10.4125 13.7065C10.4125 10.3454 13.1466 7.61123 16.5077 7.61123C19.8689 7.61123 22.603 10.3454 22.603 13.7065C22.603 15.7653 21.5745 17.6507 19.853 18.7858H18.5395V16.4565ZM23.6189 13.7065C23.6189 9.78509 20.4291 6.59536 16.5077 6.59536C12.5864 6.59536 9.39663 9.78509 9.39663 13.7065C9.39663 16.0527 10.5638 18.2372 12.4782 19.5574L11.7468 20.2888C9.63746 18.761 8.38076 16.3158 8.38076 13.7065C8.38076 9.22557 12.0268 5.57949 16.5077 5.57949C20.9886 5.57949 24.6347 9.22557 24.6347 13.7065C24.6347 16.2166 23.5001 18.5329 21.5628 20.0683C21.5048 19.7082 21.321 19.3932 21.0569 19.1643C22.6757 17.8203 23.6189 15.8414 23.6189 13.7065ZM22.0955 21.8335C22.3753 21.8335 22.6035 22.0611 22.6035 22.3414C22.6035 22.6216 22.3753 22.8493 22.0955 22.8493H18.0316C17.7518 22.8493 17.5236 22.6216 17.5236 22.3414C17.5236 22.0611 17.7518 21.8335 18.0316 21.8335H22.0955ZM18.0316 24.8811C17.7518 24.8811 17.5236 24.6534 17.5236 24.3731C17.5236 24.0929 17.7518 23.8652 18.0316 23.8652H22.0955C22.3753 23.8652 22.6035 24.0929 22.6035 24.3731C22.6035 24.6534 22.3753 24.8811 22.0955 24.8811H18.0316ZM5.33314 28.9446H3.80933V20.8176H5.33314V28.9446ZM12.1466 28.9446L10.6228 27.4208H6.34901V21.8335H11.6387L13.6704 19.8017H20.0633C20.3431 19.8017 20.5712 20.0294 20.5712 20.3096C20.5712 20.5899 20.3431 20.8176 20.0633 20.8176H14.7736L12.5931 22.9981L13.3113 23.7164L14.476 22.5517V28.9446H12.1466ZM16.5077 31.4842C15.9475 31.4842 15.4919 31.0286 15.4919 30.4684V21.8335H16.6012C16.5442 21.9929 16.5077 22.1626 16.5077 22.3414C16.5077 22.733 16.6605 23.0869 16.9038 23.3573C16.66 23.6276 16.5077 23.9815 16.5077 24.3731C16.5077 24.7648 16.6605 25.1187 16.9038 25.389C16.66 25.6593 16.5077 26.0133 16.5077 26.4049C16.5077 26.7965 16.6605 27.1504 16.9038 27.4208C16.66 27.6911 16.5077 28.045 16.5077 28.4366C16.5077 29.0978 16.9338 29.6566 17.5236 29.8669V30.4684C17.5236 31.0286 17.068 31.4842 16.5077 31.4842ZM22.0955 28.9446H18.0316C17.7518 28.9446 17.5236 28.7169 17.5236 28.4366C17.5236 28.1564 17.7518 27.9287 18.0316 27.9287H22.0955C22.3753 27.9287 22.6035 28.1564 22.6035 28.4366C22.6035 28.7169 22.3753 28.9446 22.0955 28.9446Z" fill="#7164F0"/>
<path d="M1.27002 5.07153H2.28589V6.08741H1.27002V5.07153Z" fill="#7164F0"/>
<path d="M1.27002 7.61108H2.28589V8.62696H1.27002V7.61108Z" fill="#7164F0"/>
<path d="M1.27002 10.1509H2.28589V11.1668H1.27002V10.1509Z" fill="#7164F0"/>
<path d="M29.7144 21.8333H30.7302V22.8491H29.7144V21.8333Z" fill="#7164F0"/>
<path d="M29.7144 24.373H30.7302V25.3889H29.7144V24.373Z" fill="#7164F0"/>
<path d="M29.7144 26.9126H30.7302V27.9285H29.7144V26.9126Z" fill="#7164F0"/>
</g>
<defs>
<clipPath id="clip0_1807_8474">
<rect width="32" height="32" fill="white" transform="translate(0 0.5)"/>
</clipPath>
</defs>
</svg>
