<svg width="32" height="32" viewBox="0 0 32 32" fill="none" xmlns="http://www.w3.org/2000/svg">
<path d="M28.8934 19.0667L28.36 25.7334C28.16 27.7734 28 29.3334 24.3867 29.3334H7.61337C4.00003 29.3334 3.84003 27.7734 3.64003 25.7334L3.1067 19.0667C3.00003 17.9601 3.3467 16.9334 3.97337 16.1467C3.9867 16.1334 3.9867 16.1334 4.00003 16.1201C4.73337 15.2267 5.84003 14.6667 7.08003 14.6667H24.92C26.16 14.6667 27.2534 15.2267 27.9734 16.0934C27.9867 16.1067 28 16.1201 28 16.1334C28.6534 16.9201 29.0134 17.9467 28.8934 19.0667Z" stroke="#7164F0" stroke-width="2" stroke-miterlimit="10"/>
<path d="M4.66669 15.24V8.37333C4.66669 3.84 5.80002 2.70667 10.3334 2.70667H12.0267C13.72 2.70667 14.1067 3.21333 14.7467 4.06666L16.44 6.33333C16.8667 6.89333 17.12 7.24 18.2534 7.24H21.6534C26.1867 7.24 27.32 8.37333 27.32 12.9067V15.2933" stroke="#7164F0" stroke-width="2" stroke-miterlimit="10" stroke-linecap="round" stroke-linejoin="round"/>
<path d="M12.5734 22.6667H19.4267" stroke="#7164F0" stroke-width="2" stroke-miterlimit="10" stroke-linecap="round" stroke-linejoin="round"/>
</svg>
