<svg width="36" height="36" viewBox="0 0 36 36" fill="none" xmlns="http://www.w3.org/2000/svg">
<path d="M24 3H12C6 3 3 6 3 12V31.5C3 32.325 3.675 33 4.5 33H24C30 33 33 30 33 24V12C33 6 30 3 24 3Z" stroke="#465BC8" style="stroke:#465BC8;stroke:color(display-p3 0.2747 0.3561 0.7849);stroke-opacity:1;" stroke-linecap="round" stroke-linejoin="round"/>
<path d="M19.3649 11.7602L11.5799 19.5452C11.2799 19.8452 10.9949 20.4302 10.9349 20.8502L10.5149 23.8202C10.3649 24.9002 11.1149 25.6502 12.1949 25.5002L15.1649 25.0802C15.5849 25.0202 16.1699 24.7352 16.4699 24.4352L24.2549 16.6502C25.5899 15.3152 26.2349 13.7552 24.2549 11.7752C22.2749 9.78023 20.7149 10.4102 19.3649 11.7602Z" stroke="#465BC8" style="stroke:#465BC8;stroke:color(display-p3 0.2747 0.3561 0.7849);stroke-opacity:1;" stroke-miterlimit="10" stroke-linecap="round" stroke-linejoin="round"/>
<path d="M18.2549 12.8701C18.9149 15.2251 20.7599 17.0851 23.1299 17.7451" stroke="#465BC8" style="stroke:#465BC8;stroke:color(display-p3 0.2747 0.3561 0.7849);stroke-opacity:1;" stroke-miterlimit="10" stroke-linecap="round" stroke-linejoin="round"/>
</svg>
