<svg width="36" height="37" viewBox="0 0 36 37" fill="none" xmlns="http://www.w3.org/2000/svg">
<g filter="url(#filter0_d_2231_7940)">
<path d="M25.475 13.4875V18.4875C25.475 18.8125 25.4625 19.125 25.425 19.425C25.1375 22.8 23.15 24.475 19.4875 24.475H18.9875C18.675 24.475 18.375 24.625 18.1875 24.875L16.6875 26.875C16.025 27.7625 14.95 27.7625 14.2875 26.875L12.7875 24.875C12.625 24.6625 12.2625 24.475 11.9875 24.475H11.4875C7.50001 24.475 5.5 23.4875 5.5 18.4875V13.4875C5.5 9.82501 7.18751 7.83751 10.55 7.55001C10.85 7.51251 11.1625 7.5 11.4875 7.5H19.4875C23.475 7.5 25.475 9.50001 25.475 13.4875Z" stroke="#465BC8" stroke-width="2" stroke-miterlimit="10" stroke-linecap="round" stroke-linejoin="round"/>
<path d="M30.4749 8.488V13.488C30.4749 17.163 28.7874 19.138 25.4249 19.4255C25.4624 19.1255 25.4749 18.813 25.4749 18.488V13.488C25.4749 9.5005 23.4749 7.50049 19.4874 7.50049H11.4874C11.1624 7.50049 10.8499 7.513 10.5499 7.5505C10.8374 4.188 12.8249 2.50049 16.4874 2.50049H24.4874C28.4749 2.50049 30.4749 4.5005 30.4749 8.488Z" stroke="#465BC8" stroke-width="2" stroke-miterlimit="10" stroke-linecap="round" stroke-linejoin="round"/>
<path d="M19.8694 16.5625H19.8806" stroke="#465BC8" stroke-width="2" stroke-linecap="round" stroke-linejoin="round"/>
<path d="M15.4944 16.5625H15.5056" stroke="#465BC8" stroke-width="2" stroke-linecap="round" stroke-linejoin="round"/>
<path d="M11.1194 16.5625H11.1306" stroke="#465BC8" stroke-width="2" stroke-linecap="round" stroke-linejoin="round"/>
</g>
<defs>
<filter id="filter0_d_2231_7940" x="0.5" y="1.50049" width="34.975" height="35.04" filterUnits="userSpaceOnUse" color-interpolation-filters="sRGB">
<feFlood flood-opacity="0" result="BackgroundImageFix"/>
<feColorMatrix in="SourceAlpha" type="matrix" values="0 0 0 0 0 0 0 0 0 0 0 0 0 0 0 0 0 0 127 0" result="hardAlpha"/>
<feOffset dy="4"/>
<feGaussianBlur stdDeviation="2"/>
<feComposite in2="hardAlpha" operator="out"/>
<feColorMatrix type="matrix" values="0 0 0 0 0 0 0 0 0 0 0 0 0 0 0 0 0 0 0.25 0"/>
<feBlend mode="normal" in2="BackgroundImageFix" result="effect1_dropShadow_2231_7940"/>
<feBlend mode="normal" in="SourceGraphic" in2="effect1_dropShadow_2231_7940" result="shape"/>
</filter>
</defs>
</svg>
