<svg width="32" height="33" viewBox="0 0 32 33" fill="none" xmlns="http://www.w3.org/2000/svg">
<g clip-path="url(#clip0_1924_8232)">
<path d="M30.6818 4.51823C30.2575 4.26237 29.7656 4.12282 29.2697 4.124H27.9344V3.58842C27.9344 2.51024 27.0573 1.63312 25.9786 1.63312C24.9004 1.63312 24.0232 2.51024 24.0232 3.58842V4.124H21.3729V3.58842C21.3729 2.51024 20.4958 1.63312 19.417 1.63312C18.3389 1.63312 17.4617 2.51024 17.4617 3.58842V4.124H14.8114V3.58842C14.8114 2.51024 13.9342 1.63312 12.8556 1.63312C11.7774 1.63312 10.9002 2.51024 10.9002 3.58842V4.124H8.2499V3.58842C8.2499 2.51024 7.37271 1.63312 6.29403 1.63312C5.21586 1.63312 4.33867 2.51024 4.33867 3.58842V4.124H2.72628C1.28457 4.13244 0.0168501 5.24399 0.00360107 6.59671V16.9333C0.00360107 17.2785 0.283394 17.5582 0.628557 17.5582C0.97372 17.5582 1.25351 17.2785 1.25351 16.9333V11.2797H30.7445L30.7494 28.393C30.7629 29.3069 30.1947 30.1162 29.2766 30.1169H2.72635C1.85922 30.1169 1.25358 29.4082 1.25358 28.3934V22.4336C1.25358 22.0884 0.973783 21.8086 0.62862 21.8086C0.283456 21.8086 0.00366357 22.0884 0.00366357 22.4336V28.3934C0.00366357 30.0885 1.17414 31.3668 2.72635 31.3668H29.2766C30.8704 31.3826 32.0308 29.9794 31.9994 28.3926L31.993 6.60208C32.0001 5.85745 31.4483 4.98088 30.6818 4.51823ZM25.9791 2.88303C26.3681 2.88303 26.6845 3.19944 26.6845 3.58842V6.05349C26.6892 6.4364 26.3608 6.76451 25.9786 6.75919C25.5957 6.75944 25.2731 6.44528 25.2734 6.05349L25.2731 3.58842C25.2731 3.19944 25.5896 2.88303 25.9791 2.88303ZM18.7117 3.58842C18.7117 3.19944 19.0281 2.88303 19.4176 2.88303C19.8066 2.88303 20.123 3.19944 20.123 3.58842V6.05381C20.1267 6.43578 19.8032 6.76319 19.417 6.75919C19.0281 6.75919 18.7117 6.44278 18.7117 6.05381V3.58842ZM12.1501 3.58842C12.1501 3.19944 12.4665 2.88303 12.8561 2.88303C13.245 2.88303 13.5615 3.19944 13.5615 3.58842V6.05381C13.5615 6.44278 13.2451 6.75919 12.8561 6.75919H12.8556C12.4666 6.75919 12.1501 6.44278 12.1501 6.05381V3.58842ZM5.58865 3.58842C5.58865 3.19944 5.90506 2.88303 6.2946 2.88303C6.68357 2.88303 7.00005 3.19944 7.00005 3.58842V6.05381C7.00005 6.44278 6.68363 6.75919 6.2946 6.75919H6.2941C5.90512 6.75919 5.58865 6.44278 5.58865 6.05381V3.58842ZM30.7426 10.0298H1.25351V6.59671C1.2592 5.9285 2.07946 5.36035 2.72628 5.37398H4.33848V6.05356C4.33848 7.13198 5.21586 8.00929 6.29422 8.00929C7.37265 8.00929 8.24996 7.13192 8.24996 6.05356V5.37392H10.8999V6.05349C10.8999 7.13192 11.7773 8.00923 12.8556 8.00923C13.9341 8.00923 14.8114 7.13186 14.8114 6.05349V5.37392H17.4613V6.05349C17.4613 7.13192 18.3387 8.00923 19.417 8.00923C20.4823 8.02029 21.3842 7.11254 21.3728 6.05349V5.37392H24.023V6.05374C24.0218 7.14029 24.9151 8.01254 25.9785 8.00923C27.0396 8.01367 27.9366 7.13985 27.9342 6.05349V5.37392H29.2709C29.9444 5.35111 30.6745 5.95244 30.7423 6.59608V10.0298H30.7426Z" fill="#7164F0"/>
<path d="M14.8054 23.1416C14.6946 22.8723 14.435 22.6984 14.1437 22.6984C14.1436 22.6984 14.1432 22.6984 14.1431 22.6984C13.8516 22.6986 13.5919 22.8732 13.4815 23.1429C13.4796 23.1476 13.4777 23.1523 13.4759 23.1571L11.9764 27.0943C11.8535 27.4168 12.0155 27.7779 12.338 27.9007C12.6522 28.0229 13.0219 27.8649 13.1444 27.5391L13.3646 26.9611H14.9111L15.1286 27.5374C15.2505 27.8603 15.611 28.0232 15.934 27.9014C16.2569 27.7796 16.4199 27.419 16.298 27.0961L14.8121 23.1588C14.81 23.153 14.8078 23.1473 14.8054 23.1416ZM13.8406 25.7112L14.1414 24.9215L14.4395 25.7112H13.8406Z" fill="#7164F0"/>
<path d="M23.2373 24.7652C22.7689 24.5924 22.3314 24.4048 22.1747 24.3364C22.1313 24.2943 22.1276 24.2414 22.1332 24.2018C22.1474 24.1034 22.2309 24.0241 22.3626 23.9844C22.864 23.8332 23.337 24.2083 23.3418 24.2122C23.6119 24.4555 24.0424 24.4182 24.2577 24.1222C24.4665 23.8521 24.4165 23.4638 24.146 23.2554C23.7838 22.9509 22.9247 22.5098 22.0021 22.7876C21.4034 22.968 20.9795 23.4418 20.896 24.0242C20.8121 24.6014 21.0878 25.1792 21.6046 25.4511C21.6278 25.4615 22.1815 25.7079 22.8047 25.9378C23.0384 26.0241 23.2777 26.1754 23.248 26.3414C23.2228 26.4827 23.0229 26.6918 22.6742 26.6918C22.3122 26.6918 21.9651 26.5472 21.7456 26.3051C21.5139 26.0493 21.1187 26.0299 20.8629 26.2617C20.6072 26.4934 20.5877 26.8887 20.8195 27.1444C21.2787 27.6511 21.9547 27.9417 22.6742 27.9417C23.5768 27.9417 24.3356 27.3611 24.4785 26.5611C24.5869 25.9542 24.3177 25.1637 23.2373 24.7652Z" fill="#7164F0"/>
<path d="M18.2941 27.9416H18.2957C18.6401 27.9416 18.9198 27.6629 18.9207 27.3182L18.9252 25.463L20.0895 23.6744C20.2778 23.3852 20.1959 22.998 19.9067 22.8097C19.6175 22.6214 19.2303 22.7032 19.042 22.9925L18.2999 24.1325L17.5484 22.9816C17.3596 22.6926 16.9724 22.6113 16.6834 22.8C16.3944 22.9887 16.3132 23.376 16.5018 23.6649L17.6752 25.4621L17.6707 27.3151C17.6699 27.6604 17.949 27.9408 18.2941 27.9416Z" fill="#7164F0"/>
<path d="M7.50614 27.252C7.49102 27.6098 7.77037 27.9514 8.14153 27.9416C8.17566 27.9415 8.98091 27.9384 9.3032 27.9327C10.5719 27.9106 11.4928 26.8138 11.4928 25.325C11.4928 23.76 10.5952 22.7084 9.25927 22.7084H8.13116C7.79387 22.7017 7.49733 23.0003 7.5062 23.3375L7.50614 27.252ZM9.2592 23.9584C10.1719 23.9584 10.2428 25.0045 10.2428 25.3251C10.2428 25.9926 9.94553 26.6715 9.28133 26.6831C9.15927 26.6852 8.96016 26.687 8.76199 26.6884C8.76055 26.229 8.75799 24.4372 8.75711 23.9584H9.2592Z" fill="#7164F0"/>
<path d="M18.8452 12.8893C17.4386 12.8893 16.2942 14.0336 16.2942 15.4402V18.1453C16.2942 19.5519 17.4386 20.6962 18.8452 20.6962C20.2518 20.6962 21.3961 19.5519 21.3961 18.1453V15.4402C21.3961 14.0336 20.2518 12.8893 18.8452 12.8893ZM20.1462 18.1453C20.1462 18.8627 19.5626 19.4463 18.8452 19.4463C18.1278 19.4463 17.5441 18.8627 17.5441 18.1453V15.4402C17.5441 14.7228 18.1278 14.1392 18.8452 14.1392C19.5626 14.1392 20.1462 14.7228 20.1462 15.4402V18.1453Z" fill="#7164F0"/>
<path d="M12.8798 19.4652C12.3742 19.4652 11.9404 19.0886 11.8707 18.589C11.8642 18.5421 11.8608 18.4941 11.8608 18.4461C11.8608 18.101 11.5811 17.8212 11.2359 17.8212C10.8907 17.8212 10.6109 18.101 10.6109 18.4461C10.6109 18.5517 10.6183 18.6579 10.6328 18.7618C10.7882 19.8754 11.7542 20.715 12.8799 20.715C14.131 20.715 15.1489 19.6972 15.1489 18.4461C15.1489 17.7996 14.8766 17.2159 14.4412 16.8021C14.8766 16.3885 15.1489 15.8047 15.1489 15.1581C15.1489 13.907 14.131 12.8892 12.8799 12.8892C11.7981 12.8892 10.8618 13.6588 10.6536 14.719C10.5871 15.0577 10.8077 15.3862 11.1463 15.4527C11.485 15.5191 11.8135 15.2986 11.88 14.96C11.9735 14.4844 12.3939 14.1391 12.8799 14.1391C13.4418 14.1391 13.899 14.5962 13.899 15.1581C13.899 15.72 13.4419 16.1772 12.8799 16.1772C12.5347 16.1772 12.2549 16.457 12.2549 16.8021C12.2549 17.1473 12.5347 17.4271 12.8799 17.4271C13.4418 17.4271 13.899 17.8842 13.899 18.4461C13.8989 19.0081 13.4417 19.4652 12.8798 19.4652Z" fill="#7164F0"/>
<path d="M0.0497372 19.9404C0.201727 20.344 0.772874 20.4569 1.06842 20.1435C1.42008 19.8028 1.23097 19.1763 0.748438 19.0892C0.270472 18.9846 -0.146749 19.4919 0.0497372 19.9404Z" fill="#7164F0"/>
</g>
<defs>
<clipPath id="clip0_1924_8232">
<rect width="32" height="32" fill="white" transform="translate(0 0.5)"/>
</clipPath>
</defs>
</svg>
