<svg width="32" height="32" viewBox="0 0 32 32" fill="none" xmlns="http://www.w3.org/2000/svg">
<g clip-path="url(#clip0_1477_9124)">
<path d="M31.6867 13.4333C31.5853 13.3748 31.4704 13.344 31.3533 13.344C31.2363 13.344 31.1213 13.3748 31.02 13.4333L24.5067 16.6667H22.6667V12.6667C22.6667 12.4899 22.5964 12.3203 22.4714 12.1953C22.3464 12.0703 22.1768 12 22 12H21.6467C21.8797 11.3589 21.9993 10.6821 22 10C21.9988 8.61004 21.5151 7.26359 20.6315 6.19066C19.7478 5.11772 18.5191 4.38486 17.1551 4.11726C15.7912 3.84966 14.3766 4.06392 13.1531 4.72345C11.9295 5.38298 10.9729 6.44685 10.4467 7.73335C9.81442 6.77863 8.89168 6.05274 7.81493 5.66307C6.73818 5.27339 5.5646 5.24062 4.46779 5.56959C3.37097 5.89856 2.40915 6.57181 1.7246 7.48975C1.04005 8.4077 0.669116 9.52159 0.666667 10.6667C0.66963 11.1165 0.727844 11.5643 0.84 12H0.666667C0.489856 12 0.320286 12.0703 0.195262 12.1953C0.0702379 12.3203 0 12.4899 0 12.6667L0 27.3333C0 27.5102 0.0702379 27.6797 0.195262 27.8048C0.320286 27.9298 0.489856 28 0.666667 28H22C22.1768 28 22.3464 27.9298 22.4714 27.8048C22.5964 27.6797 22.6667 27.5102 22.6667 27.3333V24.6667H24.5067L31.0333 27.9267C31.1262 27.9743 31.229 27.9994 31.3333 28C31.4582 28.0004 31.5806 27.9658 31.6867 27.9C31.7827 27.84 31.8619 27.7564 31.9168 27.6573C31.9716 27.5581 32.0002 27.4466 32 27.3333V14C32.0002 13.8867 31.9716 13.7752 31.9168 13.6761C31.8619 13.5769 31.7827 13.4934 31.6867 13.4333ZM16 5.33335C16.923 5.33335 17.8252 5.60704 18.5927 6.11982C19.3601 6.6326 19.9582 7.36144 20.3114 8.21416C20.6646 9.06688 20.7571 10.0052 20.577 10.9104C20.3969 11.8157 19.9525 12.6472 19.2998 13.2998C18.6472 13.9525 17.8157 14.3969 16.9104 14.577C16.0052 14.7571 15.0669 14.6647 14.2141 14.3115C13.3614 13.9582 12.6326 13.3601 12.1198 12.5927C11.607 11.8252 11.3333 10.923 11.3333 10C11.3333 8.76234 11.825 7.57535 12.7002 6.70018C13.5753 5.82501 14.7623 5.33335 16 5.33335ZM6 6.66668C6.79113 6.66668 7.56448 6.90128 8.22228 7.3408C8.88008 7.78033 9.39277 8.40504 9.69552 9.13595C9.99827 9.86685 10.0775 10.6711 9.92314 11.447C9.7688 12.223 9.38784 12.9357 8.82843 13.4951C8.26902 14.0545 7.55629 14.4355 6.78036 14.5898C6.00444 14.7442 5.20017 14.665 4.46927 14.3622C3.73836 14.0595 3.11365 13.5468 2.67412 12.889C2.2346 12.2312 2 11.4578 2 10.6667C2 9.60582 2.42143 8.5884 3.17157 7.83826C3.92172 7.08811 4.93913 6.66668 6 6.66668ZM21.3333 26.6667H1.33333V13.3333H1.38667C1.85549 14.1416 2.52842 14.8124 3.33806 15.2788C4.14771 15.7451 5.06566 15.9906 6 15.9906C6.93434 15.9906 7.85229 15.7451 8.66194 15.2788C9.47158 14.8124 10.1445 14.1416 10.6133 13.3333H11.0133C11.5606 14.1584 12.3036 14.8353 13.1761 15.3035C14.0485 15.7717 15.0232 16.0167 16.0133 16.0167C17.0035 16.0167 17.9782 15.7717 18.8506 15.3035C19.723 14.8353 20.466 14.1584 21.0133 13.3333H21.3333V26.6667ZM24 23.3333H22.6667V18H24V23.3333ZM30.6667 26.2533L25.3333 23.5867V17.7467L30.6667 15.08V26.2533Z" fill="#7164F0"/>
<path d="M16 12C16.3956 12 16.7822 11.8827 17.1111 11.6629C17.44 11.4432 17.6964 11.1308 17.8478 10.7654C17.9991 10.3999 18.0387 9.99778 17.9616 9.60982C17.8844 9.22186 17.6939 8.86549 17.4142 8.58579C17.1345 8.30608 16.7781 8.1156 16.3902 8.03843C16.0022 7.96126 15.6001 8.00087 15.2346 8.15224C14.8692 8.30362 14.5568 8.55996 14.3371 8.88886C14.1173 9.21776 14 9.60444 14 10C14 10.5304 14.2107 11.0391 14.5858 11.4142C14.9609 11.7893 15.4696 12 16 12ZM16 9.33333C16.1319 9.33333 16.2607 9.37243 16.3704 9.44569C16.48 9.51894 16.5655 9.62306 16.6159 9.74488C16.6664 9.8667 16.6796 10.0007 16.6539 10.1301C16.6281 10.2594 16.5646 10.3782 16.4714 10.4714C16.3782 10.5646 16.2594 10.6281 16.1301 10.6539C16.0007 10.6796 15.8667 10.6664 15.7449 10.6159C15.6231 10.5655 15.5189 10.48 15.4457 10.3704C15.3724 10.2607 15.3333 10.1319 15.3333 10C15.3333 9.82319 15.4036 9.65362 15.5286 9.5286C15.6536 9.40357 15.8232 9.33333 16 9.33333Z" fill="#7164F0"/>
<path d="M6 12.6666C6.39556 12.6666 6.78224 12.5493 7.11114 12.3296C7.44004 12.1098 7.69638 11.7974 7.84776 11.432C7.99913 11.0665 8.03874 10.6644 7.96157 10.2764C7.8844 9.88848 7.69392 9.53212 7.41421 9.25241C7.13451 8.97271 6.77814 8.78223 6.39018 8.70506C6.00222 8.62789 5.60009 8.66749 5.23463 8.81887C4.86918 8.97024 4.55682 9.22659 4.33706 9.55549C4.1173 9.88438 4 10.2711 4 10.6666C4 11.1971 4.21071 11.7058 4.58579 12.0808C4.96086 12.4559 5.46957 12.6666 6 12.6666ZM6 9.99996C6.13185 9.99996 6.26075 10.0391 6.37038 10.1123C6.48001 10.1856 6.56546 10.2897 6.61592 10.4115C6.66638 10.5333 6.67958 10.6674 6.65386 10.7967C6.62813 10.926 6.56464 11.0448 6.4714 11.138C6.37817 11.2313 6.25938 11.2948 6.13006 11.3205C6.00074 11.3462 5.86669 11.333 5.74488 11.2825C5.62306 11.2321 5.51894 11.1466 5.44569 11.037C5.37243 10.9274 5.33333 10.7985 5.33333 10.6666C5.33333 10.4898 5.40357 10.3202 5.5286 10.1952C5.65362 10.0702 5.82319 9.99996 6 9.99996Z" fill="#7164F0"/>
<path d="M15.02 20.1001L9.68669 16.7667C9.58568 16.7036 9.4696 16.6687 9.35052 16.6656C9.23144 16.6626 9.11372 16.6915 9.00959 16.7493C8.90546 16.8071 8.81874 16.8918 8.75843 16.9946C8.69813 17.0973 8.66645 17.2143 8.66669 17.3334V24.0001C8.66755 24.1189 8.70015 24.2353 8.7611 24.3372C8.82204 24.4392 8.90914 24.5231 9.01336 24.5801C9.10991 24.6381 9.22071 24.6681 9.33336 24.6667C9.45817 24.6671 9.58059 24.6325 9.68669 24.5667L15.02 21.2334C15.1165 21.1736 15.1961 21.0902 15.2513 20.991C15.3065 20.8919 15.3355 20.7802 15.3355 20.6667C15.3355 20.5532 15.3065 20.4416 15.2513 20.3425C15.1961 20.2433 15.1165 20.1599 15.02 20.1001ZM10 22.8001V18.5334L13.4067 20.6667L10 22.8001Z" fill="#7164F0"/>
</g>
<defs>
<clipPath id="clip0_1477_9124">
<rect width="32" height="32" fill="white"/>
</clipPath>
</defs>
</svg>
