<svg width="32" height="32" viewBox="0 0 32 32" fill="none" xmlns="http://www.w3.org/2000/svg">
<path d="M27.3138 4.68625C24.2917 1.66431 20.2738 0 16 0C11.3182 0 6.95434 2.01556 3.93665 5.48544L3.78271 4.39012L1.92596 4.65112L2.5244 8.90913L6.78371 8.31056L6.52278 6.45375L5.44971 6.60456C8.11009 3.61062 11.9183 1.875 16 1.875C23.7886 1.875 30.125 8.21144 30.125 16C30.125 17.1131 29.9953 18.221 29.7394 19.2929L31.5632 19.7283C31.853 18.5139 32 17.2596 32 16.0001C32 11.7263 30.3358 7.70831 27.3138 4.68625Z" fill="#7164F0"/>
<path d="M25.4053 23.3268L25.6338 25.1878L26.8612 25.0371C24.1964 28.2552 20.267 30.125 16 30.125C8.21144 30.125 1.875 23.7886 1.875 16C1.875 14.7714 2.03275 13.5523 2.34381 12.3765L0.53125 11.897C0.17875 13.2291 0 14.6096 0 16C0 20.2738 1.66425 24.2917 4.68625 27.3138C7.70831 30.3357 11.7262 32 16 32C18.7961 32 21.5485 31.2678 23.9596 29.8826C25.5958 28.9426 27.0553 27.7162 28.2646 26.2748L28.4123 27.477L30.2733 27.2485L29.7266 22.7963L25.4053 23.3268Z" fill="#7164F0"/>
<path d="M24.1205 21.0277V10.9722L16 6.23535L7.87964 10.9722V21.0278L16 25.7647L24.1205 21.0277ZM16.9375 23.0472V16.2392L22.2455 13.1429V19.9509L16.9375 23.0472ZM21.3223 11.5107L16 14.6154L10.6777 11.5107L16 8.40598L21.3223 11.5107ZM9.75464 13.1429L15.0625 16.2392V23.0472L9.75464 19.9509V13.1429Z" fill="#7164F0"/>
</svg>
