<svg width="32" height="32" viewBox="0 0 32 32" fill="none" xmlns="http://www.w3.org/2000/svg">
<path d="M16.1333 26H8V3.99996H22V13.1733C22 13.3501 22.0702 13.5197 22.1953 13.6447C22.3203 13.7697 22.4899 13.84 22.6667 13.84C22.8435 13.84 23.013 13.7697 23.1381 13.6447C23.2631 13.5197 23.3333 13.3501 23.3333 13.1733V8.66663H26.6667V10.26C26.6667 10.4368 26.7369 10.6063 26.8619 10.7314C26.987 10.8564 27.1565 10.9266 27.3333 10.9266C27.5101 10.9266 27.6797 10.8564 27.8047 10.7314C27.9298 10.6063 28 10.4368 28 10.26V5.99996C27.9989 5.11623 27.6474 4.269 27.0225 3.64411C26.3976 3.01921 25.5504 2.66768 24.6667 2.66663H5.33333C4.4496 2.66768 3.60237 3.01921 2.97748 3.64411C2.35259 4.269 2.00106 5.11623 2 5.99996V24C2.00106 24.8837 2.35259 25.7309 2.97748 26.3558C3.60237 26.9807 4.4496 27.3322 5.33333 27.3333H16.1333C16.3101 27.3333 16.4797 27.2631 16.6047 27.138C16.7298 27.013 16.8 26.8434 16.8 26.6666C16.8 26.4898 16.7298 26.3202 16.6047 26.1952C16.4797 26.0702 16.3101 26 16.1333 26ZM24.6667 3.99996C25.1971 3.99996 25.7058 4.21067 26.0809 4.58575C26.456 4.96082 26.6667 5.46953 26.6667 5.99996V7.33329H23.3333V3.99996H24.6667ZM3.33333 13.3333H6.66667V16.6666H3.33333V13.3333ZM6.66667 12H3.33333V8.66663H6.66667V12ZM3.33333 18H6.66667V21.3333H3.33333V18ZM3.33333 5.99996C3.33333 5.46953 3.54405 4.96082 3.91912 4.58575C4.29419 4.21067 4.8029 3.99996 5.33333 3.99996H6.66667V7.33329H3.33333V5.99996ZM5.33333 26C4.8029 26 4.29419 25.7892 3.91912 25.4142C3.54405 25.0391 3.33333 24.5304 3.33333 24V22.6666H6.66667V26H5.33333Z" fill="#7164F0"/>
<path d="M27.3333 23.0867C27.1565 23.0867 26.9869 23.1569 26.8619 23.2819C26.7369 23.407 26.6666 23.5765 26.6666 23.7533V24C26.6689 24.3703 26.5669 24.7338 26.3724 25.0489C26.1779 25.364 25.8987 25.6181 25.5666 25.782C25.4196 25.8368 25.2966 25.9417 25.2193 26.0782C25.142 26.2148 25.1153 26.3742 25.144 26.5285C25.1726 26.6828 25.2548 26.822 25.376 26.9217C25.4972 27.0213 25.6497 27.075 25.8066 27.0733C25.9048 27.0731 26.0017 27.0515 26.0906 27.01C26.6639 26.744 27.1486 26.3189 27.4871 25.7852C27.8256 25.2516 28.0036 24.6319 28 24V23.7533C28 23.5765 27.9297 23.407 27.8047 23.2819C27.6797 23.1569 27.5101 23.0867 27.3333 23.0867Z" fill="#7164F0"/>
<path d="M13.6666 10.3513C13.3625 10.1757 13.0175 10.0833 12.6663 10.0834C12.3151 10.0834 11.9702 10.176 11.6661 10.3516C11.362 10.5273 11.1096 10.78 10.9341 11.0842C10.7587 11.3884 10.6664 11.7335 10.6666 12.0847V18.5847C10.6652 18.9363 10.7567 19.2821 10.9318 19.587C11.107 19.892 11.3596 20.1452 11.6641 20.3212C11.9686 20.4971 12.3141 20.5894 12.6658 20.5889C13.0174 20.5883 13.3627 20.4949 13.6666 20.318L19.2953 17.0667C19.6 16.8913 19.853 16.6387 20.0289 16.3344C20.2049 16.0301 20.2975 15.6848 20.2975 15.3333C20.2975 14.9818 20.2049 14.6365 20.0289 14.3322C19.853 14.0279 19.6 13.7754 19.2953 13.6L13.6666 10.3513ZM18.6286 15.9107L13 19.16C12.8987 19.2185 12.7838 19.2493 12.6668 19.2493C12.5498 19.2493 12.4349 19.2186 12.3336 19.1602C12.2323 19.1017 12.1481 19.0177 12.0895 18.9164C12.031 18.8152 12.0001 18.7003 12 18.5833V12.0833C11.9988 11.9661 12.0291 11.8507 12.0877 11.7491C12.1464 11.6476 12.2312 11.5636 12.3333 11.506C12.4349 11.4478 12.5496 11.4164 12.6666 11.4147C12.784 11.4145 12.8993 11.4463 13 11.5067L18.6286 14.756C18.73 14.8145 18.8141 14.8987 18.8726 15C18.9311 15.1013 18.9619 15.2163 18.9619 15.3333C18.9619 15.4503 18.9311 15.5653 18.8726 15.6666C18.8141 15.768 18.73 15.8521 18.6286 15.9107Z" fill="#7164F0"/>
<path d="M29.9547 14.4313C29.9096 14.2621 29.8315 14.1035 29.7249 13.9646C29.6182 13.8257 29.4852 13.7092 29.3333 13.622L27.024 12.2887C26.7178 12.1118 26.354 12.0638 26.0124 12.1552C25.6709 12.2466 25.3796 12.4699 25.2027 12.776L18.4793 24.422C18.2375 24.8402 18.1142 25.3163 18.1227 25.7993L18.16 28.0213C18.1639 28.2515 18.2273 28.4767 18.3441 28.6751C18.4609 28.8735 18.627 29.0383 18.8264 29.1534C19.0257 29.2685 19.2515 29.3301 19.4817 29.332C19.7119 29.334 19.9387 29.2763 20.14 29.1647L22.0833 28.086C22.506 27.8508 22.8567 27.5052 23.098 27.086L29.8207 15.444C29.9089 15.2925 29.9661 15.1249 29.9891 14.9511C30.0121 14.7773 30.0004 14.6006 29.9547 14.4313ZM21.944 26.4213C21.823 26.6305 21.6474 26.8029 21.436 26.92L19.4933 28L19.456 25.778C19.4518 25.5363 19.5133 25.2981 19.634 25.0887L26.3573 13.444L28.6667 14.7773L21.944 26.4213Z" fill="#7164F0"/>
</svg>
