<svg width="32" height="32" viewBox="0 0 32 32" fill="none" xmlns="http://www.w3.org/2000/svg">
<path d="M26.6666 11V24C26.6666 28 24.28 29.3333 21.3333 29.3333H10.6666C7.71998 29.3333 5.33331 28 5.33331 24V11C5.33331 6.66663 7.71998 5.66663 10.6666 5.66663C10.6666 6.49329 10.9999 7.23995 11.5466 7.78662C12.0933 8.33329 12.84 8.66663 13.6666 8.66663H18.3333C19.9866 8.66663 21.3333 7.31996 21.3333 5.66663C24.28 5.66663 26.6666 6.66663 26.6666 11Z" stroke="#7164F0" stroke-width="2" stroke-linecap="round" stroke-linejoin="round"/>
<path d="M21.3334 5.66663C21.3334 7.31996 19.9867 8.66663 18.3334 8.66663H13.6667C12.84 8.66663 12.0933 8.33329 11.5467 7.78662C11 7.23995 10.6667 6.49329 10.6667 5.66663C10.6667 4.01329 12.0134 2.66663 13.6667 2.66663H18.3334C19.16 2.66663 19.9067 2.99996 20.4534 3.54663C21.0001 4.0933 21.3334 4.83996 21.3334 5.66663Z" stroke="#7164F0" stroke-width="2" stroke-linecap="round" stroke-linejoin="round"/>
<path d="M10.6667 17.3334H16" stroke="#7164F0" stroke-width="2" stroke-linecap="round" stroke-linejoin="round"/>
<path d="M10.6667 22.6666H21.3334" stroke="#7164F0" stroke-width="2" stroke-linecap="round" stroke-linejoin="round"/>
</svg>
