<svg width="32" height="33" viewBox="0 0 32 33" fill="none" xmlns="http://www.w3.org/2000/svg">
<path d="M28 14.8333H20C19.3814 14.8326 18.7883 14.5865 18.3509 14.1491C17.9135 13.7117 17.6674 13.1186 17.6667 12.5V4.5C17.6674 3.88139 17.9135 3.28834 18.3509 2.85092C18.7883 2.41349 19.3814 2.16742 20 2.16667H28C28.6186 2.16742 29.2117 2.41349 29.6491 2.85092C30.0865 3.28834 30.3326 3.88139 30.3333 4.5V12.5C30.3326 13.1186 30.0865 13.7117 29.6491 14.1491C29.2117 14.5865 28.6186 14.8326 28 14.8333ZM20 4.16667C19.9116 4.16684 19.8269 4.20201 19.7645 4.26449C19.702 4.32696 19.6668 4.41165 19.6667 4.5V12.5C19.6668 12.5884 19.702 12.673 19.7645 12.7355C19.8269 12.798 19.9116 12.8332 20 12.8333H28C28.0883 12.8332 28.173 12.798 28.2355 12.7355C28.298 12.673 28.3332 12.5884 28.3333 12.5V4.5C28.3332 4.41165 28.298 4.32696 28.2355 4.26449C28.173 4.20201 28.0883 4.16684 28 4.16667H20Z" fill="#7164F0"/>
<path d="M24 31.4935C23.6936 31.4941 23.3901 31.4342 23.107 31.3171C22.8239 31.2 22.5667 31.0281 22.3503 30.8112L17.6888 26.1497C17.252 25.7118 17.0067 25.1185 17.0067 24.5C17.0067 23.8815 17.252 23.2882 17.6888 22.8503L22.3503 18.1888C22.788 17.7517 23.3814 17.5062 24 17.5062C24.6186 17.5062 25.212 17.7517 25.6497 18.1888L30.3112 22.8503C30.7483 23.288 30.9938 23.8814 30.9938 24.5C30.9938 25.1186 30.7483 25.712 30.3112 26.1497L25.6497 30.8112C25.4333 31.0281 25.1761 31.2 24.893 31.3171C24.6099 31.4342 24.3064 31.4941 24 31.4935ZM24 19.5052C23.9562 19.5051 23.9128 19.5137 23.8724 19.5304C23.8319 19.5472 23.7952 19.5718 23.7643 19.6029L19.1029 24.2643C19.0719 24.2953 19.0473 24.332 19.0306 24.3724C19.0138 24.4129 19.0052 24.4562 19.0052 24.5C19.0052 24.5438 19.0138 24.5871 19.0306 24.6276C19.0473 24.668 19.0719 24.7047 19.1029 24.7357L23.7643 29.3971C23.7953 29.4281 23.832 29.4527 23.8724 29.4694C23.9129 29.4862 23.9562 29.4948 24 29.4948C24.0438 29.4948 24.0871 29.4862 24.1275 29.4694C24.168 29.4527 24.2047 29.4281 24.2357 29.3971L28.8971 24.7357C28.9281 24.7047 28.9526 24.668 28.9694 24.6276C28.9862 24.5871 28.9948 24.5438 28.9948 24.5C28.9948 24.4562 28.9862 24.4129 28.9694 24.3724C28.9526 24.332 28.9281 24.2953 28.8971 24.2643L24.2357 19.6029C24.2048 19.5718 24.1681 19.5472 24.1276 19.5304C24.0872 19.5137 24.0438 19.5051 24 19.5052Z" fill="#7164F0"/>
<path d="M12 14.8333H3.99999C3.38138 14.8326 2.78833 14.5865 2.3509 14.1491C1.91348 13.7117 1.66741 13.1186 1.66666 12.5V4.5C1.66741 3.88139 1.91348 3.28834 2.3509 2.85092C2.78833 2.41349 3.38138 2.16742 3.99999 2.16667H12C12.6186 2.16742 13.2117 2.41349 13.6491 2.85092C14.0865 3.28834 14.3326 3.88139 14.3333 4.5V12.5C14.3326 13.1186 14.0865 13.7117 13.6491 14.1491C13.2117 14.5865 12.6186 14.8326 12 14.8333ZM3.99999 4.16667C3.91164 4.16684 3.82695 4.20201 3.76447 4.26449C3.702 4.32696 3.66683 4.41165 3.66666 4.5V12.5C3.66683 12.5884 3.702 12.673 3.76447 12.7355C3.82695 12.798 3.91164 12.8332 3.99999 12.8333H12C12.0883 12.8332 12.173 12.798 12.2355 12.7355C12.298 12.673 12.3332 12.5884 12.3333 12.5V4.5C12.3332 4.41165 12.298 4.32696 12.2355 4.26449C12.173 4.20201 12.0883 4.16684 12 4.16667H3.99999Z" fill="#7164F0"/>
<path d="M12 30.8333H3.99999C3.38138 30.8326 2.78833 30.5865 2.3509 30.1491C1.91348 29.7117 1.66741 29.1186 1.66666 28.5V20.5C1.66741 19.8814 1.91348 19.2883 2.3509 18.8509C2.78833 18.4135 3.38138 18.1674 3.99999 18.1667H12C12.6186 18.1674 13.2117 18.4135 13.6491 18.8509C14.0865 19.2883 14.3326 19.8814 14.3333 20.5V28.5C14.3326 29.1186 14.0865 29.7117 13.6491 30.1491C13.2117 30.5865 12.6186 30.8326 12 30.8333ZM3.99999 20.1667C3.91164 20.1668 3.82695 20.202 3.76447 20.2645C3.702 20.327 3.66683 20.4116 3.66666 20.5V28.5C3.66683 28.5884 3.702 28.673 3.76447 28.7355C3.82695 28.798 3.91164 28.8332 3.99999 28.8333H12C12.0883 28.8332 12.173 28.798 12.2355 28.7355C12.298 28.673 12.3332 28.5884 12.3333 28.5V20.5C12.3332 20.4116 12.298 20.327 12.2355 20.2645C12.173 20.202 12.0883 20.1668 12 20.1667H3.99999Z" fill="#7164F0"/>
</svg>
