<svg width="32" height="32" viewBox="0 0 32 32" fill="none" xmlns="http://www.w3.org/2000/svg">
<g clip-path="url(#clip0_1924_8198)">
<path d="M29.5 8.00001H28.8506C29.4308 7.35286 29.8112 6.55156 29.9457 5.6929C30.0803 4.83425 29.9633 3.955 29.609 3.16139C29.2546 2.36777 28.678 1.69376 27.9488 1.22079C27.2197 0.747816 26.3691 0.496124 25.5 0.496124C24.6309 0.496124 23.7803 0.747816 23.0512 1.22079C22.322 1.69376 21.7454 2.36777 21.391 3.16139C21.0367 3.955 20.9197 4.83425 21.0543 5.6929C21.1888 6.55156 21.5692 7.35286 22.1494 8.00001H16V3.00001C16 2.8674 15.9473 2.74022 15.8536 2.64645C15.7598 2.55269 15.6326 2.50001 15.5 2.50001H13.5C13.3674 2.50001 13.2402 2.55269 13.1464 2.64645C13.0527 2.74022 13 2.8674 13 3.00001V8.00001H12.5V1.00001C12.5 0.867399 12.4473 0.740222 12.3536 0.646454C12.2598 0.552685 12.1326 0.500007 12 0.500007H10C9.86739 0.500007 9.74021 0.552685 9.64645 0.646454C9.55268 0.740222 9.5 0.867399 9.5 1.00001V8.00001H9V4.50001C9 4.3674 8.94732 4.24022 8.85355 4.14645C8.75979 4.05269 8.63261 4.00001 8.5 4.00001H6.5C6.36739 4.00001 6.24021 4.05269 6.14645 4.14645C6.05268 4.24022 6 4.3674 6 4.50001V8.00001H2.5C1.96975 8.0006 1.46139 8.21151 1.08644 8.58645C0.7115 8.96139 0.500596 9.46976 0.5 10V25C0.500596 25.5303 0.7115 26.0386 1.08644 26.4136C1.46139 26.7885 1.96975 26.9994 2.5 27H12.8062L12.1394 29H10.5C10.3674 29 10.2402 29.0527 10.1464 29.1465C10.0527 29.2402 10 29.3674 10 29.5V30.5H5C4.86739 30.5 4.74021 30.5527 4.64645 30.6465C4.55268 30.7402 4.5 30.8674 4.5 31C4.5 31.1326 4.55268 31.2598 4.64645 31.3536C4.74021 31.4473 4.86739 31.5 5 31.5H27C27.1326 31.5 27.2598 31.4473 27.3536 31.3536C27.4473 31.2598 27.5 31.1326 27.5 31C27.5 30.8674 27.4473 30.7402 27.3536 30.6465C27.2598 30.5527 27.1326 30.5 27 30.5H22V29.5C22 29.3674 21.9473 29.2402 21.8536 29.1465C21.7598 29.0527 21.6326 29 21.5 29H19.8606L19.1938 27H29.5C30.0303 26.9994 30.5386 26.7885 30.9136 26.4136C31.2885 26.0386 31.4994 25.5303 31.5 25V10C31.4994 9.46976 31.2885 8.96139 30.9136 8.58645C30.5386 8.21151 30.0303 8.0006 29.5 8.00001ZM26 1.53626C26.7473 1.6453 27.4394 1.99265 27.9734 2.52665C28.5074 3.06064 28.8547 3.75274 28.9638 4.50001H26V1.53626ZM25.7069 5.50001H28.9638C28.8774 6.10082 28.6362 6.66881 28.2638 7.14815C27.8914 7.62749 27.4007 8.00167 26.8399 8.2339C26.2791 8.46613 25.6675 8.54841 25.0652 8.47267C24.463 8.39692 23.8908 8.16575 23.405 7.80188L25.7069 5.50001ZM22 5.00001C22.0012 4.15875 22.3049 3.34598 22.8557 2.71007C23.4064 2.07417 24.1675 1.65754 25 1.53626V4.79313L22.6981 7.09501C22.2443 6.49092 21.9992 5.75559 22 5.00001ZM14 3.50001H15V13H14V3.50001ZM12.5 9.00001H13V13H12.5V9.00001ZM10.5 1.50001H11.5V13H10.5V1.50001ZM9 9.00001H9.5V13H9V9.00001ZM7 5.00001H8V13H7V5.00001ZM21 30V30.5H11V30H21ZM13.1938 29L13.8606 27H18.1394L18.8062 29H13.1938ZM30.5 25C30.4997 25.2651 30.3942 25.5193 30.2067 25.7067C30.0193 25.8942 29.7651 25.9997 29.5 26H2.5C2.23489 25.9997 1.98074 25.8942 1.79328 25.7067C1.60582 25.5193 1.50035 25.2651 1.5 25V24H30.5V25ZM30.5 23H1.5V10C1.50035 9.7349 1.60582 9.48074 1.79328 9.29328C1.98074 9.10582 2.23489 9.00035 2.5 9.00001H6V13H5.5V10C5.5 9.8674 5.44732 9.74022 5.35355 9.64645C5.25979 9.55268 5.13261 9.50001 5 9.50001H3C2.86739 9.50001 2.74021 9.55268 2.64645 9.64645C2.55268 9.74022 2.5 9.8674 2.5 10V13.5C2.5 13.6326 2.55268 13.7598 2.64645 13.8536C2.74021 13.9473 2.86739 14 3 14H19C19.1326 14 19.2598 13.9473 19.3536 13.8536C19.4473 13.7598 19.5 13.6326 19.5 13.5V10C19.5 9.8674 19.4473 9.74022 19.3536 9.64645C19.2598 9.55268 19.1326 9.50001 19 9.50001H17C16.8674 9.50001 16.7402 9.55268 16.6464 9.64645C16.5527 9.74022 16.5 9.8674 16.5 10V13H16V9.00001H23.4425C24.0786 9.32856 24.7841 9.50001 25.5 9.50001C26.2159 9.50001 26.9214 9.32856 27.5575 9.00001H29.5C29.7651 9.00035 30.0193 9.10582 30.2067 9.29328C30.3942 9.48074 30.4997 9.7349 30.5 10V23ZM4.5 10.5V13H3.5V10.5H4.5ZM17.5 13V10.5H18.5V13H17.5Z" fill="#7164F0"/>
<path d="M6 24.5H3C2.86739 24.5 2.74021 24.5527 2.64645 24.6464C2.55268 24.7402 2.5 24.8674 2.5 25C2.5 25.1326 2.55268 25.2598 2.64645 25.3536C2.74021 25.4473 2.86739 25.5 3 25.5H6C6.13261 25.5 6.25979 25.4473 6.35355 25.3536C6.44732 25.2598 6.5 25.1326 6.5 25C6.5 24.8674 6.44732 24.7402 6.35355 24.6464C6.25979 24.5527 6.13261 24.5 6 24.5Z" fill="#7164F0"/>
<path d="M8 24.5H7.5C7.36739 24.5 7.24021 24.5527 7.14645 24.6464C7.05268 24.7402 7 24.8674 7 25C7 25.1326 7.05268 25.2598 7.14645 25.3536C7.24021 25.4473 7.36739 25.5 7.5 25.5H8C8.13261 25.5 8.25979 25.4473 8.35355 25.3536C8.44732 25.2598 8.5 25.1326 8.5 25C8.5 24.8674 8.44732 24.7402 8.35355 24.6464C8.25979 24.5527 8.13261 24.5 8 24.5Z" fill="#7164F0"/>
<path d="M21.5 13C21.5657 13.0001 21.6307 12.9872 21.6914 12.9621C21.7521 12.9369 21.8072 12.9001 21.8536 12.8536L23.707 11H28C28.1326 11 28.2598 10.9473 28.3535 10.8536C28.4473 10.7598 28.5 10.6326 28.5 10.5C28.5 10.3674 28.4473 10.2402 28.3535 10.1464C28.2598 10.0527 28.1326 10 28 10H23.5C23.4343 10 23.3693 10.0129 23.3086 10.0381C23.248 10.0632 23.1929 10.1 23.1464 10.1464L21.1464 12.1464C21.0765 12.2164 21.0289 12.3055 21.0096 12.4024C20.9903 12.4994 21.0002 12.6 21.038 12.6913C21.0759 12.7827 21.14 12.8608 21.2222 12.9157C21.3044 12.9707 21.4011 13 21.5 13Z" fill="#7164F0"/>
<path d="M28 18.5C27.7373 18.5002 27.4792 18.5694 27.2516 18.7007C27.024 18.832 26.8348 19.0208 26.7031 19.2481L21.4688 16.1944C21.3978 15.8536 21.2107 15.5482 20.9393 15.3303C20.6678 15.1124 20.3291 14.9957 19.9811 15.0001C19.6331 15.0046 19.2975 15.1299 19.0317 15.3546C18.7659 15.5793 18.5866 15.8894 18.5244 16.2319L13.2569 20.1825C13.1136 19.9618 12.9147 19.7828 12.6803 19.6633C12.4458 19.5439 12.1841 19.4883 11.9213 19.5021C11.6585 19.5159 11.404 19.5986 11.1834 19.742C10.9628 19.8853 10.7838 20.0843 10.6644 20.3187L5.45813 18.1494C5.37599 17.8069 5.17598 17.5042 4.89313 17.2943C4.61027 17.0844 4.2626 16.9807 3.91098 17.0013C3.55937 17.0219 3.22621 17.1656 2.96985 17.4071C2.71348 17.6487 2.55025 17.9727 2.50873 18.3224C2.4672 18.6722 2.55004 19.0254 2.74273 19.3203C2.93541 19.6151 3.22567 19.8328 3.56269 19.9352C3.8997 20.0376 4.26199 20.0181 4.58612 19.8803C4.91026 19.7425 5.17558 19.495 5.33563 19.1812L10.5419 21.3506C10.6223 21.6851 10.8152 21.9818 11.0884 22.191C11.3615 22.4001 11.6983 22.509 12.0422 22.4993C12.3861 22.4897 12.7162 22.362 12.9772 22.1379C13.2382 21.9137 13.4142 21.6066 13.4756 21.2681L18.7431 17.3175C18.8827 17.5325 19.075 17.708 19.3018 17.8275C19.5286 17.9469 19.7822 18.0061 20.0384 17.9995C20.2946 17.9929 20.5448 17.9208 20.7652 17.7899C20.9855 17.659 21.1686 17.4737 21.2969 17.2519L26.5313 20.3056C26.589 20.5832 26.7243 20.8388 26.9214 21.0427C27.1185 21.2465 27.3694 21.3903 27.6449 21.4574C27.9204 21.5245 28.2093 21.5121 28.4781 21.4217C28.7469 21.3313 28.9845 21.1665 29.1634 20.9465C29.3424 20.7266 29.4553 20.4604 29.4891 20.1788C29.5229 19.8973 29.4762 19.6119 29.3544 19.3558C29.2326 19.0997 29.0408 18.8834 28.801 18.7319C28.5613 18.5805 28.2836 18.5 28 18.5ZM4.50001 18.5025C4.49968 18.6353 4.44663 18.7626 4.35253 18.8563C4.25843 18.9501 4.13097 19.0027 3.99813 19.0025C3.8653 19.0023 3.73797 18.9494 3.6441 18.8555C3.55023 18.7615 3.49751 18.6341 3.49751 18.5012C3.49751 18.3684 3.55023 18.241 3.6441 18.147C3.73797 18.053 3.8653 18.0002 3.99813 18C4.13097 17.9998 4.25843 18.0524 4.35253 18.1461C4.44663 18.2399 4.49968 18.3672 4.50001 18.5V18.5025ZM12 21.5C11.8675 21.4998 11.7404 21.4471 11.6467 21.3533C11.5529 21.2596 11.5002 21.1325 11.5 21V20.9975C11.5005 20.8987 11.5302 20.8023 11.5855 20.7204C11.6407 20.6385 11.719 20.5748 11.8104 20.5373C11.9018 20.4999 12.0023 20.4903 12.0991 20.5099C12.1959 20.5295 12.2848 20.5773 12.3544 20.6473C12.4241 20.7174 12.4715 20.8064 12.4906 20.9034C12.5097 21.0003 12.4996 21.1007 12.4617 21.1919C12.4238 21.2831 12.3597 21.3611 12.2775 21.4159C12.1954 21.4707 12.0988 21.5 12 21.5ZM20 17C19.9011 17 19.8044 16.9707 19.7222 16.9157C19.64 16.8608 19.5759 16.7827 19.5381 16.6913C19.5002 16.6 19.4903 16.4994 19.5096 16.4025C19.5289 16.3055 19.5765 16.2164 19.6465 16.1464C19.7164 16.0765 19.8055 16.0289 19.9025 16.0096C19.9995 15.9903 20.1 16.0002 20.1913 16.0381C20.2827 16.0759 20.3608 16.14 20.4157 16.2222C20.4707 16.3044 20.5 16.4011 20.5 16.5C20.4998 16.6325 20.4471 16.7596 20.3534 16.8533C20.2596 16.9471 20.1326 16.9998 20 17ZM28 20.5C27.9011 20.5 27.8044 20.4707 27.7222 20.4157C27.64 20.3608 27.5759 20.2827 27.5381 20.1913C27.5002 20.1 27.4903 19.9994 27.5096 19.9025C27.5289 19.8055 27.5765 19.7164 27.6465 19.6464C27.7164 19.5765 27.8055 19.5289 27.9025 19.5096C27.9995 19.4903 28.1 19.5002 28.1913 19.5381C28.2827 19.5759 28.3608 19.64 28.4157 19.7222C28.4707 19.8044 28.5 19.9011 28.5 20C28.4998 20.1325 28.4471 20.2596 28.3534 20.3533C28.2596 20.4471 28.1326 20.4998 28 20.5Z" fill="#7164F0"/>
<path d="M24 21.5H20.5C20.3674 21.5 20.2402 21.5527 20.1464 21.6464C20.0527 21.7402 20 21.8674 20 22C20 22.1326 20.0527 22.2598 20.1464 22.3536C20.2402 22.4473 20.3674 22.5 20.5 22.5H24C24.1326 22.5 24.2598 22.4473 24.3536 22.3536C24.4473 22.2598 24.5 22.1326 24.5 22C24.5 21.8674 24.4473 21.7402 24.3536 21.6464C24.2598 21.5527 24.1326 21.5 24 21.5Z" fill="#7164F0"/>
<path d="M24 20H22.5C22.3674 20 22.2402 20.0527 22.1464 20.1464C22.0527 20.2402 22 20.3674 22 20.5C22 20.6326 22.0527 20.7598 22.1464 20.8536C22.2402 20.9473 22.3674 21 22.5 21H24C24.1326 21 24.2598 20.9473 24.3536 20.8536C24.4473 20.7598 24.5 20.6326 24.5 20.5C24.5 20.3674 24.4473 20.2402 24.3536 20.1464C24.2598 20.0527 24.1326 20 24 20Z" fill="#7164F0"/>
<path d="M3 15.5H8.5C8.63261 15.5 8.75979 15.4473 8.85355 15.3536C8.94732 15.2598 9 15.1326 9 15C9 14.8674 8.94732 14.7402 8.85355 14.6464C8.75979 14.5527 8.63261 14.5 8.5 14.5H3C2.86739 14.5 2.74021 14.5527 2.64645 14.6464C2.55268 14.7402 2.5 14.8674 2.5 15C2.5 15.1326 2.55268 15.2598 2.64645 15.3536C2.74021 15.4473 2.86739 15.5 3 15.5Z" fill="#7164F0"/>
<path d="M10 15.5H10.5C10.6326 15.5 10.7598 15.4473 10.8536 15.3536C10.9473 15.2598 11 15.1326 11 15C11 14.8674 10.9473 14.7402 10.8536 14.6464C10.7598 14.5527 10.6326 14.5 10.5 14.5H10C9.86739 14.5 9.74021 14.5527 9.64645 14.6464C9.55268 14.7402 9.5 14.8674 9.5 15C9.5 15.1326 9.55268 15.2598 9.64645 15.3536C9.74021 15.4473 9.86739 15.5 10 15.5Z" fill="#7164F0"/>
</g>
<defs>
<clipPath id="clip0_1924_8198">
<rect width="32" height="32" fill="white"/>
</clipPath>
</defs>
</svg>
