<svg width="32" height="32" viewBox="0 0 32 32" fill="none" xmlns="http://www.w3.org/2000/svg">
<path d="M25.7331 10.56V17.4267C25.7331 21.5333 23.3865 23.2933 19.8665 23.2933H8.14644C7.54644 23.2933 6.97311 23.24 6.43978 23.12C6.10645 23.0667 5.78646 22.9734 5.49312 22.8667C3.49312 22.12 2.27979 20.3867 2.27979 17.4267V10.56C2.27979 6.45331 4.62644 4.69336 8.14644 4.69336H19.8665C22.8531 4.69336 24.9998 5.96002 25.5731 8.85335C25.6665 9.38669 25.7331 9.93331 25.7331 10.56Z" stroke="#7164F0" stroke-width="2" stroke-miterlimit="10" stroke-linecap="round" stroke-linejoin="round"/>
<path d="M29.7347 14.5601V21.4268C29.7347 25.5335 27.3881 27.2935 23.8681 27.2935H12.1481C11.1614 27.2935 10.2681 27.1602 9.49475 26.8669C7.90808 26.2802 6.82807 25.0669 6.44141 23.1202C6.97474 23.2402 7.54807 23.2935 8.14807 23.2935H19.8681C23.3881 23.2935 25.7347 21.5335 25.7347 17.4268V10.5601C25.7347 9.93347 25.6814 9.37352 25.5747 8.85352C28.1081 9.38685 29.7347 11.1735 29.7347 14.5601Z" stroke="#7164F0" stroke-width="2" stroke-miterlimit="10" stroke-linecap="round" stroke-linejoin="round"/>
<path d="M13.9976 17.5198C15.9416 17.5198 17.5176 15.9438 17.5176 13.9998C17.5176 12.0557 15.9416 10.4797 13.9976 10.4797C12.0535 10.4797 10.4775 12.0557 10.4775 13.9998C10.4775 15.9438 12.0535 17.5198 13.9976 17.5198Z" stroke="#7164F0" stroke-width="2" stroke-miterlimit="10" stroke-linecap="round" stroke-linejoin="round"/>
<path d="M6.37305 11.0667V16.9333" stroke="#7164F0" stroke-width="2" stroke-miterlimit="10" stroke-linecap="round" stroke-linejoin="round"/>
<path d="M21.6289 11.0671V16.9338" stroke="#7164F0" stroke-width="2" stroke-miterlimit="10" stroke-linecap="round" stroke-linejoin="round"/>
</svg>
