<svg width="32" height="33" viewBox="0 0 32 33" fill="none" xmlns="http://www.w3.org/2000/svg">
<g clip-path="url(#clip0_1807_8490)">
<path d="M16 7.02006C10.7727 7.02006 6.52 11.2728 6.52 16.5001C6.52 21.7273 10.7727 25.98 16 25.98C21.2272 25.98 25.4799 21.7273 25.4799 16.5001C25.4799 11.2728 21.2272 7.02006 16 7.02006ZM16 24.9799C11.3241 24.9799 7.52 21.1759 7.52 16.5C7.52 11.8241 11.3241 8.02 16 8.02C20.6758 8.02 24.4799 11.8241 24.4799 16.5C24.4799 21.1759 20.6759 24.9799 16 24.9799ZM31.6796 14.4844L29.3383 13.5832C28.9932 11.9963 28.3737 10.5017 27.4934 9.13256L28.5124 6.83813C28.5964 6.64913 28.5553 6.42787 28.4091 6.28162L26.2184 4.09106C26.0722 3.94481 25.8511 3.90375 25.6619 3.98762L23.3666 5.007C21.997 4.12675 20.5026 3.50719 18.9171 3.16244L18.0156 0.820375C17.9413 0.627375 17.7558 0.5 17.5489 0.5H14.451C14.2441 0.5 14.0587 0.627375 13.9844 0.820375L13.0829 3.16237C11.4974 3.50719 10.003 4.12669 8.63325 5.00694L6.338 3.98756C6.14894 3.90363 5.92775 3.94475 5.7815 4.091L3.59094 6.28162C3.44469 6.42787 3.40356 6.64906 3.4875 6.83813L4.50681 9.13319C3.6265 10.5026 3.007 11.9971 2.66213 13.583L0.320375 14.4844C0.127375 14.5587 0 14.7442 0 14.951V18.049C0 18.2559 0.127375 18.4413 0.320375 18.5156L2.66175 19.4168C3.00681 21.0037 3.62638 22.4983 4.50663 23.8675L3.48756 26.1619C3.40356 26.3509 3.44469 26.5722 3.59094 26.7184L5.78156 28.909C5.92781 29.0553 6.14906 29.0964 6.33806 29.0124L8.63338 27.9931C10.0031 28.8733 11.4974 29.4929 13.0829 29.8376L13.9844 32.1796C14.0587 32.3726 14.2441 32.5 14.451 32.5H17.5489C17.7558 32.5 17.9412 32.3726 18.0156 32.1796L18.9167 29.8383C20.5036 29.4932 21.9981 28.8737 23.3674 27.9934L25.6618 29.0124C25.8509 29.0964 26.0721 29.0554 26.2183 28.9091L28.4089 26.7185C28.5551 26.5723 28.5962 26.3511 28.5123 26.162L27.4929 23.8666C28.3731 22.497 28.9927 21.0026 29.3375 19.4171L31.6795 18.5156C31.8725 18.4413 31.9999 18.2559 31.9999 18.049V14.951C32 14.7441 31.8726 14.5586 31.6796 14.4844ZM31 17.7057L28.7237 18.5819C28.5633 18.6437 28.4458 18.7835 28.4127 18.9522C28.0893 20.5986 27.4492 22.1427 26.5102 23.5415C26.4144 23.6842 26.3986 23.8661 26.4684 24.0231L27.4592 26.2541L25.7541 27.9591L23.524 26.9686C23.3669 26.8989 23.1851 26.9147 23.0423 27.0105C21.6442 27.9494 20.0997 28.5896 18.4519 28.9132C18.2832 28.9464 18.1434 29.0639 18.0817 29.2243L17.2057 31.5H14.7944L13.9181 29.2237C13.8564 29.0633 13.7166 28.9458 13.5479 28.9127C11.9015 28.5893 10.3574 27.9492 8.95856 27.0102C8.81581 26.9144 8.634 26.8986 8.47694 26.9684L6.246 27.9592L4.54087 26.2541L5.53137 24.024C5.60119 23.8669 5.58537 23.685 5.4895 23.5423C4.55069 22.1443 3.91044 20.5998 3.58675 18.9519C3.55363 18.7832 3.43613 18.6434 3.27569 18.5816L1 17.7057V15.2943L3.27606 14.4182C3.4365 14.3564 3.55394 14.2166 3.58713 14.0479C3.91056 12.4009 4.55069 10.8567 5.48969 9.45831C5.5855 9.31562 5.60131 9.13375 5.53156 8.97663L4.54081 6.746L6.24594 5.04087L8.47681 6.03169C8.63387 6.10138 8.81569 6.08562 8.95844 5.98987C10.3573 5.05081 11.9014 4.41075 13.5479 4.08737C13.7166 4.05425 13.8564 3.93675 13.9181 3.77638L14.7943 1.5H17.2057L18.0819 3.77631C18.1436 3.93669 18.2834 4.05419 18.4521 4.08731C20.0986 4.41069 21.6427 5.05081 23.0415 5.98981C23.1842 6.08562 23.366 6.10131 23.5231 6.03162L25.7541 5.04081L27.4592 6.74587L26.4687 8.976C26.3989 9.13306 26.4148 9.315 26.5106 9.45769C27.4494 10.8558 28.0896 12.4002 28.4133 14.0481C28.4464 14.2168 28.5639 14.3566 28.7244 14.4183L31 15.2942V17.7057ZM15.1699 10.5384L9.83425 14.4151C9.203 14.8724 9.06156 15.7581 9.519 16.3894C9.74056 16.6952 10.068 16.8963 10.4409 16.9559C10.721 17.0006 11.0016 16.9613 11.2536 16.8451V20.9244C11.2536 21.9206 12.064 22.731 13.0601 22.731H18.9397C19.9358 22.731 20.7463 21.9206 20.7463 20.9244V16.8439C20.9304 16.929 21.1296 16.9739 21.3331 16.9739C21.408 16.9739 21.4836 16.9679 21.559 16.9559C21.9319 16.8963 22.2593 16.6951 22.4809 16.3894C22.7024 16.0836 22.7917 15.7098 22.7322 15.3369C22.6727 14.9641 22.4714 14.6366 22.1662 14.4154L16.8496 10.5527C16.3507 10.1773 15.6766 10.1713 15.1699 10.5384ZM16.7664 21.7309H15.2335V17.8479C15.2335 17.7858 15.286 17.7332 15.3481 17.7332H16.6518C16.7139 17.7332 16.7664 17.7858 16.7664 17.8479V21.7309H16.7664ZM18.9398 21.7309H17.7664V17.8479C17.7664 17.2333 17.2664 16.7332 16.6519 16.7332H15.3481C14.7336 16.7332 14.2336 17.2332 14.2336 17.8479V21.7309H13.0603C12.6155 21.7309 12.2537 21.3691 12.2537 20.9244V16.1522L16 13.4303L19.7463 16.1521V20.9244C19.7463 21.3691 19.3845 21.7309 18.9398 21.7309ZM21.7447 15.4946C21.7622 15.6037 21.7361 15.7131 21.6712 15.8026C21.6063 15.8921 21.5105 15.9509 21.4014 15.9684C21.2924 15.9859 21.1829 15.9597 21.0939 15.8952L16.2939 12.4078C16.2062 12.3441 16.1031 12.3123 16 12.3123C15.8969 12.3123 15.7937 12.3441 15.7061 12.4078L10.9062 15.8951C10.8168 15.9598 10.7076 15.9859 10.5986 15.9684C10.4894 15.9509 10.3936 15.8921 10.3287 15.8026C10.1949 15.6179 10.2363 15.3587 10.4215 15.2245L15.7572 11.3479C15.9036 11.2418 16.1061 11.2439 16.2498 11.3529C16.2525 11.3549 16.2552 11.357 16.2581 11.359L21.5789 15.2249C21.6684 15.2896 21.7273 15.3854 21.7447 15.4946Z" fill="#7164F0"/>
</g>
<defs>
<clipPath id="clip0_1807_8490">
<rect width="32" height="32" fill="white" transform="translate(0 0.5)"/>
</clipPath>
</defs>
</svg>
