<svg width="32" height="32" viewBox="0 0 32 32" fill="none" xmlns="http://www.w3.org/2000/svg">
<path d="M29.3335 8.00008V11.2267C29.3335 13.3334 28.0002 14.6667 25.8935 14.6667H21.3335V5.34675C21.3335 3.86675 22.5468 2.66675 24.0268 2.66675C25.4802 2.68008 26.8135 3.26675 27.7735 4.22675C28.7335 5.20008 29.3335 6.53341 29.3335 8.00008Z" stroke="#7164F0" stroke-width="2" stroke-miterlimit="10" stroke-linecap="round" stroke-linejoin="round"/>
<path d="M2.6665 9.33341V28.0001C2.6665 29.1067 3.91984 29.7334 4.79984 29.0668L7.07984 27.3601C7.61317 26.9601 8.35984 27.0134 8.83984 27.4934L11.0532 29.7201C11.5732 30.2401 12.4265 30.2401 12.9465 29.7201L15.1865 27.4801C15.6532 27.0134 16.3998 26.9601 16.9198 27.3601L19.1998 29.0668C20.0798 29.7201 21.3332 29.0934 21.3332 28.0001V5.33341C21.3332 3.86675 22.5332 2.66675 23.9998 2.66675H9.33317H7.99984C3.99984 2.66675 2.6665 5.05341 2.6665 8.00008V9.33341Z" stroke="#7164F0" stroke-width="2" stroke-miterlimit="10" stroke-linecap="round" stroke-linejoin="round"/>
<path d="M12 17.3467H16" stroke="#7164F0" stroke-width="2" stroke-linecap="round" stroke-linejoin="round"/>
<path d="M12 12.0134H16" stroke="#7164F0" stroke-width="2" stroke-linecap="round" stroke-linejoin="round"/>
<path d="M7.99414 17.3333H8.00612" stroke="#7164F0" stroke-width="2" stroke-linecap="round" stroke-linejoin="round"/>
<path d="M7.99414 12H8.00612" stroke="#7164F0" stroke-width="2" stroke-linecap="round" stroke-linejoin="round"/>
</svg>
