<svg width="32" height="32" viewBox="0 0 32 32" fill="none" xmlns="http://www.w3.org/2000/svg">
<g clip-path="url(#clip0_1924_8221)">
<path d="M7.86363 11.444C8.47606 11.9944 9.69013 12.215 10.8064 12.215C11.0168 12.215 11.2233 12.2069 11.422 12.1919C11.6851 12.4619 12.0838 12.7231 12.6793 12.9424C13.5626 13.2676 14.7419 13.4467 16 13.4467C17.855 13.4467 19.7221 13.0511 20.5725 12.1916C20.7729 12.2068 20.9814 12.2151 21.1937 12.2151C22.3099 12.2151 23.5241 11.9944 24.1364 11.4441C24.4814 11.134 24.5538 10.7977 24.5538 10.5701C24.5538 8.88106 23.2988 7.48031 21.6724 7.24969C22.4282 7.04181 22.9851 6.34894 22.9851 5.52806C22.9851 4.54356 22.1841 3.74256 21.1994 3.74256C20.2148 3.74256 19.4137 4.5435 19.4137 5.52806C19.4137 6.34856 19.9701 7.04112 20.7254 7.24937C20.3437 7.30337 19.9757 7.42219 19.6349 7.60238C18.7159 6.64775 17.4268 6.05194 16.0002 6.05194C14.5736 6.05194 13.2843 6.64769 12.3653 7.60231C12.0246 7.42213 11.6566 7.30331 11.2749 7.24931C12.0301 7.04106 12.5866 6.3485 12.5866 5.528C12.5866 4.5435 11.7855 3.7425 10.8009 3.7425C9.81625 3.7425 9.01519 4.54344 9.01519 5.528C9.01519 6.34887 9.57219 7.04175 10.3279 7.24963C8.70144 7.48025 7.44625 8.881 7.44625 10.5701C7.44625 10.7976 7.51863 11.1339 7.86363 11.444ZM20.2886 5.52794C20.2886 5.02587 20.6972 4.61744 21.1994 4.61744C21.7015 4.61744 22.1101 5.02587 22.1101 5.52794C22.1101 6.03012 21.7015 6.43862 21.1994 6.43862C20.6972 6.43862 20.2886 6.03006 20.2886 5.52794ZM21.1994 8.09056C22.5665 8.09056 23.6788 9.20281 23.6788 10.57C23.6788 10.5997 23.6788 10.6788 23.5515 10.7932C23.1546 11.1499 22.1134 11.3644 21.0284 11.339C21.0411 11.2614 21.0479 11.1817 21.0479 11.0996C21.0479 10.0656 20.7349 9.10356 20.1994 8.30231C20.5124 8.164 20.8511 8.09056 21.1994 8.09056ZM16.0001 6.92688C18.3009 6.92688 20.1729 8.79875 20.1729 11.0996C20.1729 11.9251 18.3399 12.5717 15.9999 12.5717C13.6601 12.5717 11.8271 11.9251 11.8271 11.0996C11.8271 8.79869 13.6991 6.92688 16.0001 6.92688ZM9.89019 5.52794C9.89019 5.02587 10.2988 4.61744 10.8009 4.61744C11.303 4.61744 11.7116 5.02587 11.7116 5.52794C11.7116 6.03012 11.303 6.43862 10.8009 6.43862C10.2988 6.43862 9.89019 6.03006 9.89019 5.52794ZM10.8009 8.09056C11.1491 8.09056 11.4878 8.164 11.8007 8.30225C11.2651 9.1035 10.9521 10.0656 10.9521 11.0995C10.9521 11.1756 10.9581 11.2559 10.9718 11.339C9.88675 11.3645 8.84544 11.1499 8.4485 10.7932C8.32125 10.6788 8.32125 10.5997 8.32125 10.57C8.32125 9.20287 9.43363 8.09056 10.8009 8.09056ZM31 15.5625H28.2469L28.2411 13.0328L28.7666 13.0241C28.9561 13.5571 29.4653 13.9399 30.0625 13.9399C30.8207 13.9399 31.4375 13.3231 31.4375 12.5649C31.4375 11.8068 30.8207 11.1899 30.0625 11.1899C29.4492 11.1899 28.9285 11.5936 28.7519 12.1492L27.7953 12.1651C27.5561 12.1691 27.3644 12.3644 27.365 12.6036L27.3719 15.5625H26.0717L26.056 10.1467H26.9355C27.1187 10.6909 27.6334 11.0842 28.2387 11.0842C28.9969 11.0842 29.6137 10.4674 29.6137 9.70919C29.6137 8.951 28.9969 8.33419 28.2387 8.33419C27.6335 8.33419 27.1188 8.72744 26.9355 9.27169H25.6172C25.5009 9.27169 25.3894 9.31794 25.3074 9.40031C25.2253 9.48262 25.1794 9.59425 25.1797 9.7105L25.1968 15.5625H23.3303C23.0887 15.5625 22.8928 15.7584 22.8928 16C22.8928 19.8007 19.8007 22.8927 16.0001 22.8927C12.1994 22.8927 9.10725 19.8007 9.10725 16C9.10725 15.7584 8.91138 15.5625 8.66975 15.5625H6.80325L6.82019 9.71044C6.8205 9.59419 6.77463 9.48256 6.6925 9.40025C6.61044 9.31794 6.49894 9.27162 6.38269 9.27162H5.06444C4.88125 8.72737 4.3665 8.33412 3.76125 8.33412C3.00306 8.33412 2.38625 8.95094 2.38625 9.70912C2.38625 10.4673 3.00306 11.0841 3.76125 11.0841C4.36644 11.0841 4.88119 10.6909 5.06444 10.1466H5.94394L5.92825 15.5625H4.62806L4.63494 12.6036C4.6355 12.3644 4.44388 12.1691 4.20469 12.1651L3.24806 12.1492C3.07144 11.5936 2.55075 11.1899 1.9375 11.1899C1.17925 11.1899 0.562439 11.8068 0.562439 12.5649C0.562439 13.3231 1.17925 13.9399 1.9375 13.9399C2.53469 13.9399 3.04394 13.5571 3.23331 13.0241L3.75888 13.0328L3.75306 15.5625H1C0.758376 15.5625 0.562501 15.7584 0.562501 16V17.4999C0.562501 18.2845 1.20075 18.9228 1.98531 18.9228C3.1715 18.9228 4.19088 19.6049 4.64575 20.703C5.10056 21.8011 4.86213 23.0043 4.02331 23.8431C3.46856 24.3979 3.46856 25.3005 4.02331 25.8553L6.14463 27.9766C6.69938 28.5313 7.602 28.5313 8.15688 27.9766C8.99675 27.1367 10.2003 26.8972 11.298 27.3519C12.3955 27.8064 13.0773 28.8268 13.0773 30.0146C13.0773 30.7992 13.7155 31.4375 14.5001 31.4375H17.5C18.2846 31.4375 18.9228 30.7992 18.9228 30.0146C18.9228 28.8284 19.6049 27.8091 20.703 27.3542C21.8013 26.8994 23.0044 27.1379 23.8431 27.9767C24.3979 28.5313 25.3005 28.5314 25.8554 27.9767L27.9767 25.8554C28.5314 25.3006 28.5314 24.3979 27.9767 23.8431C27.1379 23.0044 26.8994 21.8011 27.3543 20.7031C27.8091 19.6049 28.8286 18.9228 30.0147 18.9228C30.7993 18.9228 31.4375 18.2846 31.4375 17.5V16C31.4375 15.7584 31.2417 15.5625 31 15.5625ZM30.0625 12.0649C30.3382 12.0649 30.5625 12.2893 30.5625 12.5649C30.5625 12.8406 30.3382 13.0649 30.0625 13.0649C29.7868 13.0649 29.5625 12.8406 29.5625 12.5649C29.5625 12.2893 29.7868 12.0649 30.0625 12.0649ZM28.2388 9.20919C28.5144 9.20919 28.7388 9.4335 28.7388 9.70919C28.7388 9.98487 28.5144 10.2092 28.2388 10.2092C27.9631 10.2092 27.7388 9.98487 27.7388 9.70919C27.7388 9.4335 27.9631 9.20919 28.2388 9.20919ZM3.76125 10.2092C3.48556 10.2092 3.26125 9.98487 3.26125 9.70919C3.26125 9.4335 3.48556 9.20919 3.76125 9.20919C4.03694 9.20919 4.26119 9.4335 4.26119 9.70919C4.26119 9.98487 4.03694 10.2092 3.76125 10.2092ZM1.9375 13.0649C1.66175 13.0649 1.43744 12.8406 1.43744 12.5649C1.43744 12.2893 1.66175 12.0649 1.9375 12.0649C2.21319 12.0649 2.43744 12.2893 2.43744 12.5649C2.43744 12.8406 2.21325 13.0649 1.9375 13.0649ZM30.5625 17.4999C30.5625 17.802 30.3168 18.0478 30.0147 18.0478C28.4679 18.0478 27.1387 18.9369 26.5459 20.3681C25.953 21.7994 26.2641 23.3681 27.3579 24.4619C27.5715 24.6754 27.5715 25.0231 27.3579 25.2366L25.2366 27.3579C25.0231 27.5714 24.6754 27.5716 24.4618 27.3579C23.3681 26.2642 21.7995 25.9529 20.3681 26.5459C18.9368 27.1387 18.0477 28.4679 18.0477 30.0147C18.0477 30.3167 17.8019 30.5626 17.4999 30.5626H14.5C14.1979 30.5626 13.9522 30.3167 13.9522 30.0147C13.9522 28.4662 13.0634 27.1361 11.6328 26.5436C11.1533 26.3449 10.6585 26.248 10.171 26.248C9.20388 26.248 8.26606 26.63 7.53813 27.358C7.3245 27.5715 6.97688 27.5716 6.76338 27.358L4.64206 25.2367C4.42844 25.0231 4.42844 24.6755 4.64206 24.4619C5.73581 23.3681 6.047 21.7995 5.45406 20.3682C4.86125 18.9369 3.53206 18.0478 1.98525 18.0478C1.68319 18.0478 1.43744 17.8021 1.43744 17.5V16.4375H8.24431C8.47219 20.5177 11.8637 23.7677 15.9999 23.7677C20.1362 23.7677 23.5277 20.5177 23.7556 16.4375H30.5625V17.4999ZM10.7328 15.5625C10.4911 15.5625 10.2953 15.7584 10.2953 16C10.2953 19.1456 12.8544 21.7048 16 21.7048C19.1456 21.7048 21.7047 19.1456 21.7047 16C21.7047 15.7584 21.5088 15.5625 21.2672 15.5625H10.7328ZM16 20.8298C13.4843 20.8298 11.4116 18.8964 11.1899 16.4375H20.8101C20.5884 18.8964 18.5157 20.8298 16 20.8298ZM16.0001 5.69887C17.4163 5.69887 18.5685 4.54669 18.5685 3.1305C18.5685 1.7145 17.4164 0.5625 16.0001 0.5625C14.5839 0.5625 13.4318 1.7145 13.4318 3.1305C13.4318 4.54669 14.5839 5.69887 16.0001 5.69887ZM16.0001 1.4375C16.9338 1.4375 17.6935 2.19694 17.6935 3.1305C17.6935 4.06419 16.9339 4.82387 16.0001 4.82387C15.0664 4.82387 14.3068 4.06425 14.3068 3.1305C14.3068 2.19694 15.0664 1.4375 16.0001 1.4375Z" fill="#7164F0"/>
</g>
<defs>
<clipPath id="clip0_1924_8221">
<rect width="32" height="32" fill="white"/>
</clipPath>
</defs>
</svg>
