<svg width="32" height="33" viewBox="0 0 32 33" fill="none" xmlns="http://www.w3.org/2000/svg">
<g clip-path="url(#clip0_1807_8470)">
<path d="M30.0058 22.527C30.9113 21.6215 31.214 20.3537 30.8157 19.1357C30.7617 18.9705 30.6257 18.8453 30.4567 18.8049C30.2875 18.7645 30.1098 18.8147 29.9868 18.9376L28.1796 20.7449L27.3122 20.5124L27.0797 19.6449L28.887 17.8377C29.0099 17.7147 29.0602 17.5369 29.0197 17.3678C28.9793 17.1988 28.8541 17.0629 28.6889 17.0089C27.471 16.6105 26.2031 16.9132 25.2975 17.8187C24.7994 18.3168 24.4839 18.9612 24.3728 19.6397C22.7465 18.1079 20.754 17.0427 18.5995 16.5361C20.4582 15.6355 21.8437 13.8921 22.2342 11.7699H22.3277C23.093 11.7699 23.7157 11.1474 23.7157 10.3821C23.7157 9.73418 23.2695 9.18862 22.6682 9.03643C22.6683 9.02062 22.6684 9.00487 22.6684 8.98912C22.6684 6.07449 20.8778 3.50131 18.178 2.47799C18.1375 2.23862 18.038 2.01874 17.8819 1.82843C17.393 1.23224 16.4455 1.04962 15.7367 1.00137C15.714 0.999869 15.6914 0.999869 15.6687 1.00137C14.9599 1.04962 14.0124 1.23231 13.5235 1.82843C13.3674 2.01881 13.268 2.23862 13.2275 2.47799C10.5277 3.50131 8.73703 6.07456 8.73703 8.98912C8.73703 9.00487 8.73709 9.02062 8.73722 9.03643C8.13597 9.18862 7.68978 9.73418 7.68978 10.3821C7.68978 11.1473 8.3124 11.7699 9.07772 11.7699H9.17128C9.56147 13.8907 10.9455 15.6334 12.8025 16.5344C11.5483 16.8288 10.345 17.3145 9.22978 17.9804L9.18584 17.8662C9.11159 17.6732 8.92609 17.5458 8.71922 17.5458H7.00159C6.79472 17.5458 6.60928 17.6732 6.53497 17.8662L6.22215 18.6789C5.78972 18.8026 5.37359 18.9752 4.97972 19.194L4.18334 18.8402C3.99428 18.7564 3.77315 18.7974 3.62684 18.9436L2.41222 20.1582C2.26597 20.3046 2.2249 20.5257 2.30884 20.7147L2.66253 21.5111C2.44365 21.905 2.27109 22.3212 2.14734 22.7536L1.33478 23.0664C1.14178 23.1406 1.0144 23.3261 1.0144 23.533V25.2506C1.0144 25.4575 1.14178 25.6429 1.33478 25.7172L2.14722 26.03C2.27103 26.4627 2.44359 26.8789 2.6624 27.2729L2.30884 28.0689C2.2249 28.2579 2.26597 28.4791 2.41228 28.6254L3.6269 29.84C3.77322 29.9862 3.99434 30.0272 4.18334 29.9434L4.97972 29.5896C5.37359 29.8084 5.78972 29.981 6.22215 30.1047L6.53497 30.9174C6.60922 31.1104 6.79472 31.2378 7.00159 31.2378H8.71922C8.92609 31.2378 9.11153 31.1104 9.18584 30.9174L9.49859 30.105C9.93128 29.9812 10.3475 29.8086 10.7414 29.5898L11.5375 29.9434C11.7266 30.0274 11.9478 29.9862 12.094 29.8399L13.3086 28.6253C13.4548 28.4791 13.4959 28.2579 13.412 28.0689L13.3997 28.0413H15.8823C15.7778 28.5852 15.8095 29.1571 15.9897 29.7081C16.0437 29.8733 16.1797 29.9985 16.3487 30.0389C16.5178 30.0794 16.6956 30.0291 16.8185 29.9062L18.6258 28.099L19.4932 28.3314L19.7257 29.1989L17.9185 31.0061C17.7955 31.1291 17.7453 31.3069 17.7857 31.4759C17.826 31.645 17.9513 31.7809 18.1165 31.8349C18.4601 31.9473 18.8117 32.0021 19.1597 32.0021C20.027 32.0021 20.8712 31.6617 21.5078 31.0251C22.3008 30.232 22.631 29.1132 22.4235 28.0414H27.7818C27.9237 28.0414 28.0588 27.9811 28.1537 27.8756C28.2485 27.7701 28.294 27.6292 28.2789 27.4882C28.1284 26.0819 27.7484 24.731 27.149 23.4616C28.178 23.6127 29.257 23.2756 30.0058 22.527ZM13.2968 3.52981L13.6626 6.34681C13.6982 6.62062 13.9483 6.81374 14.2228 6.77824C14.4967 6.74268 14.6898 6.49187 14.6543 6.21799L14.2123 2.81443C14.1876 2.62406 14.2445 2.52637 14.2968 2.46256C14.4924 2.22412 15.0166 2.05256 15.7028 2.00149C16.389 2.05256 16.9132 2.22412 17.1087 2.46256C17.161 2.52637 17.2179 2.62399 17.1932 2.81443L16.7513 6.21799C16.7158 6.49187 16.9089 6.74268 17.1827 6.77824C17.2046 6.78106 17.2263 6.78243 17.2477 6.78243C17.4952 6.78243 17.7102 6.59874 17.743 6.34674L18.1088 3.52981C20.2604 4.47424 21.6685 6.59731 21.6685 8.98918C21.6685 8.99087 21.6685 8.99256 21.6685 8.99424H19.5554V5.82268C19.5554 5.54656 19.3315 5.32268 19.0554 5.32268C18.7793 5.32268 18.5554 5.54656 18.5554 5.82268V8.99424H12.8503V5.82268C12.8503 5.54656 12.6264 5.32268 12.3503 5.32268C12.0742 5.32268 11.8503 5.54656 11.8503 5.82268V8.99424H9.73728C9.73728 8.99256 9.73722 8.99087 9.73722 8.98918C9.73703 6.59737 11.1451 4.47424 13.2968 3.52981ZM8.68978 10.3821C8.68978 10.1682 8.86378 9.99424 9.07772 9.99424H9.25665H22.1487H22.3277C22.5416 9.99424 22.7156 10.1682 22.7156 10.3821C22.7156 10.596 22.5416 10.77 22.3277 10.77H9.59572C9.59553 10.77 9.59528 10.77 9.59509 10.77H9.07772C8.86378 10.77 8.68978 10.596 8.68978 10.3821ZM10.1917 11.77H21.2138C20.6552 14.3311 18.3783 16.1995 15.7027 16.1995C13.0271 16.1995 10.7502 14.3311 10.1917 11.77ZM11.6297 28.8901L10.9131 28.5719C10.7625 28.5049 10.5885 28.5167 10.448 28.6031C10.0016 28.8781 9.51715 29.0789 9.00822 29.2001C8.84784 29.2382 8.71653 29.3529 8.65734 29.5068L8.3759 30.2378H7.3449L7.0634 29.5066C7.00422 29.3527 6.8729 29.2379 6.71259 29.1998C6.20384 29.0787 5.71953 28.8779 5.27315 28.603C5.13265 28.5164 4.95865 28.505 4.80803 28.5717L4.09115 28.8901L3.36209 28.1611L3.68034 27.4446C3.74722 27.2939 3.73559 27.1199 3.64909 26.9795C3.37415 26.5331 3.17334 26.0486 3.05215 25.5397C3.01403 25.3793 2.89928 25.248 2.7454 25.1888L2.0144 24.9074V23.8764L2.74553 23.5949C2.89934 23.5357 3.01415 23.4044 3.05228 23.2441C3.1734 22.7354 3.37415 22.2511 3.64915 21.8046C3.73565 21.6641 3.74728 21.4901 3.6804 21.3394L3.36209 20.6227L4.09115 19.8936L4.80797 20.212C4.95859 20.2789 5.13259 20.2673 5.27309 20.1807C5.71953 19.9059 6.20384 19.7051 6.71253 19.5839C6.87284 19.5458 7.00415 19.431 7.06334 19.2772L7.34484 18.5459H8.37584L8.65734 19.2772C8.71653 19.431 8.84784 19.5458 9.00815 19.5839C9.5169 19.7051 10.0012 19.9058 10.4476 20.1807C10.5881 20.2673 10.7622 20.2787 10.9127 20.212L11.6295 19.8936L12.3586 20.6226L12.0403 21.3391C11.9735 21.4898 11.9851 21.6638 12.0715 21.8042C12.3465 22.2508 12.5474 22.7352 12.6685 23.2441C12.7067 23.4045 12.8214 23.5358 12.9753 23.595L13.7063 23.8764V24.9074L12.975 25.1889C12.8212 25.2481 12.7064 25.3794 12.6683 25.5397C12.5472 26.0484 12.3464 26.5327 12.0715 26.9791C11.985 27.1196 11.9733 27.2936 12.0402 27.4442L12.3586 28.1611L11.6297 28.8901ZM16.7995 26.3168C16.5802 26.5362 16.3962 26.7802 16.249 27.0413H13.1793C13.3413 26.7169 13.4735 26.3789 13.5733 26.0301L14.386 25.7172C14.579 25.643 14.7063 25.4575 14.7063 25.2506V23.533C14.7063 23.3261 14.579 23.1407 14.386 23.0664L13.5735 22.7537C13.4498 22.3211 13.2772 21.9048 13.0583 21.5107L13.4119 20.7147C13.4958 20.5257 13.4548 20.3045 13.3085 20.1582L12.0938 18.9436C11.9476 18.7974 11.7265 18.7564 11.5374 18.8402L10.741 19.194C10.4496 19.0321 10.146 18.8957 9.83253 18.7854C11.6098 17.746 13.6252 17.1994 15.7027 17.1994C19.0474 17.1994 22.2178 18.6329 24.4316 21.1372L20.0927 25.4761C18.9311 25.1341 17.6693 25.4471 16.7995 26.3168ZM21.3102 27.7892C21.6658 28.6602 21.4658 29.6527 20.8006 30.318C20.4011 30.7175 19.885 30.9502 19.3448 30.9939L20.6369 29.7019C20.7632 29.5756 20.8125 29.3914 20.7663 29.2189L20.3844 27.7937C20.3382 27.6211 20.2034 27.4864 20.0308 27.4401L18.6057 27.0583C18.5629 27.0468 18.5195 27.0413 18.4763 27.0413C18.3455 27.0413 18.2178 27.0927 18.1228 27.1877L16.8308 28.4798C16.8745 27.9396 17.1073 27.4234 17.5067 27.0239C18.1719 26.3587 19.1642 26.1589 20.0355 26.5144C20.2218 26.5905 20.4357 26.5474 20.5781 26.4051L25.3859 21.5973C25.5282 21.4549 25.5713 21.2411 25.4952 21.0547C25.145 20.1971 25.3498 19.1808 26.0047 18.5259C26.4123 18.1184 26.9247 17.8853 27.4654 17.8451L26.1685 19.1419C26.0422 19.2682 25.9929 19.4524 26.0392 19.6249L26.421 21.0501C26.4673 21.2226 26.602 21.3574 26.7745 21.4036L28.1996 21.7855C28.3722 21.8318 28.5563 21.7824 28.6827 21.6561L29.9795 20.3592C29.9393 20.8999 29.7063 21.4124 29.2987 21.8198C28.6438 22.4747 27.6276 22.6797 26.77 22.3294C26.5835 22.2533 26.3698 22.2964 26.2273 22.4387L21.4195 27.2466C21.2772 27.389 21.234 27.6028 21.3102 27.7892ZM23.039 27.0413L26.228 23.8523C26.7098 24.8639 27.0399 25.9321 27.2122 27.0413H23.039ZM7.8604 20.8963C5.93297 20.8963 4.36484 22.4644 4.36484 24.3919C4.36484 26.3194 5.93297 27.8875 7.8604 27.8875C9.78784 27.8875 11.356 26.3194 11.356 24.3919C11.3559 22.4644 9.78778 20.8963 7.8604 20.8963ZM7.8604 26.8874C6.48434 26.8874 5.36484 25.7679 5.36484 24.3918C5.36484 23.0157 6.48434 21.8962 7.8604 21.8962C9.23647 21.8962 10.356 23.0157 10.356 24.3918C10.3559 25.7679 9.2364 26.8874 7.8604 26.8874Z" fill="#7164F0"/>
</g>
<defs>
<clipPath id="clip0_1807_8470">
<rect width="32" height="32" fill="white" transform="translate(0 0.5)"/>
</clipPath>
</defs>
</svg>
