<svg width="15" height="14" viewBox="0 0 15 14" fill="none" xmlns="http://www.w3.org/2000/svg">
<path d="M5.84337 6.34091C5.78503 6.33508 5.71503 6.33508 5.65087 6.34091C4.26253 6.29425 3.16003 5.15675 3.16003 3.75675C3.16003 2.32758 4.31503 1.16675 5.75003 1.16675C7.1792 1.16675 8.34003 2.32758 8.34003 3.75675C8.3342 5.15675 7.2317 6.29425 5.84337 6.34091Z" stroke="#7164F0" stroke-linecap="round" stroke-linejoin="round"/>
<path d="M10.0725 2.33325C11.2042 2.33325 12.1142 3.24909 12.1142 4.37492C12.1142 5.47742 11.2392 6.37575 10.1484 6.41659C10.1017 6.41075 10.0492 6.41075 9.9967 6.41659" stroke="#7164F0" stroke-linecap="round" stroke-linejoin="round"/>
<path d="M2.92667 8.49325C1.515 9.43825 1.515 10.9783 2.92667 11.9174C4.53084 12.9908 7.16167 12.9908 8.76584 11.9174C10.1775 10.9724 10.1775 9.43242 8.76584 8.49325C7.1675 7.42575 4.53667 7.42575 2.92667 8.49325Z" stroke="#7164F0" stroke-linecap="round" stroke-linejoin="round"/>
<path d="M11.1984 11.6667C11.6184 11.5792 12.015 11.4101 12.3417 11.1592C13.2517 10.4767 13.2517 9.35091 12.3417 8.66841C12.0209 8.42341 11.63 8.26008 11.2159 8.16675" stroke="#7164F0" stroke-linecap="round" stroke-linejoin="round"/>
</svg>
