<svg width="32" height="33" viewBox="0 0 32 33" fill="none" xmlns="http://www.w3.org/2000/svg">
<path d="M31.1577 14.2182L27.854 12.9395C27.6165 12.1464 27.2965 11.3739 26.899 10.637L28.3315 7.39636C28.4046 7.23073 28.3683 7.03761 28.2408 6.91011L25.5902 4.25948C25.4621 4.13198 25.2696 4.09573 25.104 4.16886L21.8633 5.60136C21.1265 5.20448 20.354 4.88386 19.5608 4.64636L18.2821 1.34261C18.2171 1.17386 18.0546 1.06323 17.874 1.06323H14.1271C13.9465 1.06323 13.784 1.17448 13.719 1.34261L12.4402 4.64636C11.6471 4.88386 10.8746 5.20386 10.1377 5.60136L6.89709 4.16886C6.73146 4.09573 6.53834 4.13198 6.41084 4.25948L3.76021 6.91011C3.63271 7.03761 3.59646 7.23136 3.66959 7.39636L5.10209 10.637C4.70584 11.3726 4.38521 12.1451 4.14584 12.9395L0.84334 14.2182C0.67459 14.2832 0.563965 14.4457 0.563965 14.6264V18.3732C0.563965 18.5539 0.675215 18.7164 0.84334 18.7814L4.14709 20.0601C4.38459 20.8545 4.70521 21.6276 5.10209 22.3632L3.66959 25.6057C3.59646 25.7714 3.63271 25.9645 3.76084 26.092L6.41146 28.7407C6.53896 28.8682 6.73209 28.9045 6.89771 28.8314L10.1383 27.4007C10.8696 27.7951 11.6421 28.1157 12.4415 28.3551L13.7202 31.6576C13.7852 31.8264 13.9477 31.937 14.1283 31.937H17.8752C18.0558 31.937 18.2183 31.8257 18.2833 31.6576L19.5621 28.3551C20.3565 28.1157 21.1296 27.7951 21.8646 27.3989L25.1052 28.8314C25.2708 28.9045 25.464 28.8682 25.5915 28.7407L28.2421 26.092C28.3702 25.9645 28.4058 25.7707 28.3333 25.6057L26.9008 22.3632C27.2977 21.6276 27.6183 20.8545 27.8558 20.0601L31.1596 18.7814C31.3283 18.7164 31.439 18.5539 31.439 18.3732V14.6264C31.439 14.4457 31.3277 14.2832 31.1596 14.2182H31.1577ZM30.5621 18.0732L27.3358 19.322C27.2071 19.372 27.1096 19.4795 27.0721 19.6126C26.829 20.4845 26.4783 21.3301 26.0296 22.127C25.9621 22.247 25.9546 22.3926 26.0108 22.5182L27.4096 25.6845L25.1833 27.9095L22.019 26.5107C21.8927 26.4551 21.7477 26.462 21.6277 26.5295C20.8308 26.977 19.9846 27.3289 19.1121 27.5739C18.9796 27.6114 18.8721 27.7089 18.8227 27.837L17.574 31.0614H14.4265L13.1777 27.837C13.1277 27.7082 13.0208 27.6107 12.8877 27.5739C12.0096 27.3276 11.1633 26.9764 10.3727 26.5314C10.2527 26.4639 10.1077 26.4564 9.98146 26.5126L6.81709 27.9101L4.59084 25.6851L5.98959 22.5189C6.04521 22.3926 6.03834 22.2476 5.97084 22.1276C5.52209 21.3307 5.17146 20.4851 4.92834 19.6132C4.89147 19.4801 4.79334 19.3726 4.66459 19.3226L1.43834 18.0739V14.9264L4.66334 13.6776C4.79146 13.6276 4.88959 13.5207 4.92647 13.3882C5.17209 12.5157 5.52334 11.6695 5.97084 10.8726C6.03834 10.7526 6.04521 10.6076 5.98959 10.4814L4.59084 7.31698L6.81709 5.09073L9.98146 6.48948C10.1077 6.54511 10.2527 6.53823 10.3727 6.47073C11.1715 6.02198 12.0171 5.67136 12.8877 5.42823C13.0208 5.39136 13.1283 5.29323 13.1783 5.16448L14.4271 1.93823H17.5746L18.8233 5.16448C18.8733 5.29323 18.9808 5.39073 19.114 5.42823C19.984 5.67136 20.8302 6.02198 21.629 6.47073C21.749 6.53823 21.894 6.54511 22.0202 6.48948L25.1846 5.09073L27.4108 7.31698L26.0121 10.4814C25.9565 10.6076 25.9633 10.7526 26.0308 10.8726C26.4796 11.6714 26.8302 12.5176 27.0733 13.3876C27.1102 13.5207 27.2083 13.6282 27.3371 13.6782L30.5633 14.927V18.0745L30.5621 18.0732ZM23.7665 11.0495C23.5602 10.7564 23.3371 10.4751 23.0996 10.2076C23.0752 10.1701 23.0452 10.1364 23.0108 10.1082C22.9983 10.0945 22.9852 10.0807 22.9721 10.0664C22.9458 10.027 22.9133 9.99198 22.8758 9.96261C21.1452 8.14323 18.7027 7.00698 15.999 7.00698C13.2952 7.00698 10.8527 8.14323 9.12271 9.96386C9.08646 9.99261 9.05459 10.0264 9.02896 10.0645C8.74271 10.3745 8.47646 10.7039 8.23271 11.0501C8.20459 11.0807 8.18021 11.1151 8.16146 11.1526C7.11896 12.6764 6.50834 14.5182 6.50834 16.4995C6.50834 18.4807 7.11959 20.3232 8.16271 21.847C8.18084 21.8826 8.20396 21.9151 8.23021 21.9445C8.89959 22.8964 9.73834 23.7201 10.7033 24.3714C10.7321 24.3964 10.7652 24.4182 10.8008 24.4357C12.2952 25.4176 14.0808 25.9895 15.999 25.9895C17.9171 25.9895 19.6133 25.4457 21.0846 24.5089C21.1227 24.4907 21.1571 24.4682 21.1877 24.442C22.1977 23.7801 23.0746 22.9314 23.7683 21.9451C23.7958 21.9151 23.819 21.882 23.8377 21.8451C24.8808 20.3214 25.4915 18.4801 25.4915 16.4982C25.4915 14.5164 24.8808 12.6757 23.839 11.1526C23.8196 11.1139 23.7952 11.0789 23.7665 11.0476V11.0495ZM23.0096 13.8251C23.0096 14.2689 22.649 14.6295 22.2052 14.6295C21.7615 14.6295 21.4027 14.2689 21.4027 13.8251V10.8845H22.5296C22.6983 11.0807 22.8583 11.2845 23.0096 11.4951V13.8257V13.8251ZM8.99084 11.4945C9.17772 11.2339 9.37834 10.9839 9.59209 10.7464H10.5977V13.8257C10.5977 14.2695 10.2371 14.6301 9.79334 14.6301C9.34959 14.6301 8.99084 14.2695 8.99084 13.8257V11.4951V11.4945ZM11.4727 10.8845H13.0796V13.8251C13.0796 14.2689 12.7196 14.6295 12.2771 14.6295C11.8346 14.6295 11.4727 14.2689 11.4727 13.8251V10.8845ZM13.9546 10.7464H15.5615V13.8257C15.5615 14.2695 15.2015 14.6301 14.759 14.6301C14.3165 14.6301 13.9546 14.2695 13.9546 13.8257V10.7464ZM16.4365 10.8845H18.0452V13.8251C18.0452 14.2689 17.6846 14.6295 17.2408 14.6295C16.7971 14.6295 16.4365 14.2689 16.4365 13.8251V10.8845ZM18.9202 10.7464H20.5271V13.8257C20.5271 14.2695 20.1665 14.6301 19.7227 14.6301C19.279 14.6301 18.9202 14.2695 18.9202 13.8257V10.7464ZM21.4977 9.87136H10.5008C11.994 8.63073 13.9108 7.88386 15.9983 7.88386C18.0858 7.88386 20.004 8.63073 21.4971 9.87136H21.4977ZM8.11459 13.0276V19.9732C7.64459 18.9101 7.38272 17.7357 7.38272 16.5007C7.38272 15.2657 7.64459 14.0907 8.11459 13.0276ZM11.5558 23.8801C12.4065 22.2657 14.0846 21.242 15.9296 21.242C17.7746 21.242 19.499 22.2901 20.3377 23.942C19.0627 24.6882 17.5802 25.1164 15.999 25.1164C14.4177 25.1164 12.8546 24.6645 11.5565 23.8801H11.5558ZM14.1721 18.6076C14.1721 17.6382 14.9602 16.8501 15.9296 16.8501C16.899 16.8501 17.689 17.6382 17.689 18.6076C17.689 19.577 16.8996 20.367 15.9296 20.367C14.9596 20.367 14.1721 19.5776 14.1721 18.6076ZM21.0727 23.4601C20.3415 22.0757 19.0965 21.0632 17.6296 20.6182C18.2008 20.1345 18.5646 19.4132 18.5646 18.6076C18.5646 17.1557 17.3827 15.9751 15.9302 15.9751C14.4777 15.9751 13.2977 17.1564 13.2977 18.6076C13.2977 19.4139 13.6615 20.1357 14.2333 20.6195C12.7952 21.0576 11.5658 22.0432 10.829 23.3882C10.1252 22.8582 9.50459 22.2232 8.99084 21.5064V15.3007C9.22959 15.4314 9.50272 15.5057 9.79334 15.5057C10.2852 15.5057 10.7277 15.2932 11.0352 14.9557C11.3427 15.2932 11.7858 15.5057 12.2771 15.5057C12.7683 15.5057 13.2102 15.2932 13.5177 14.9557C13.8252 15.2932 14.2677 15.5057 14.7596 15.5057C15.2515 15.5057 15.6927 15.2932 16.0002 14.9557C16.3077 15.2932 16.7502 15.5057 17.2421 15.5057C17.734 15.5057 18.1765 15.2932 18.484 14.9557C18.7908 15.2932 19.2333 15.5057 19.7246 15.5057C20.2158 15.5057 20.659 15.2932 20.9665 14.9557C21.2733 15.2932 21.7158 15.5057 22.2071 15.5057C22.4983 15.5057 22.7721 15.4314 23.0115 15.3001V21.5057C22.474 22.2557 21.8196 22.9164 21.0746 23.4601H21.0727ZM23.8846 19.9732V13.0282C24.3546 14.0914 24.6165 15.2664 24.6165 16.5014C24.6165 17.7364 24.3546 18.9107 23.8846 19.9739V19.9732Z" fill="#7164F0"/>
</svg>
