<svg width="36" height="37" viewBox="0 0 36 37" fill="none" xmlns="http://www.w3.org/2000/svg">
<path d="M18.795 31.1301H9.315C4.575 31.1301 3 27.9801 3 24.8151V12.1851C3 7.44512 4.575 5.87012 9.315 5.87012H18.795C23.535 5.87012 25.11 7.44512 25.11 12.1851V24.8151C25.11 29.5551 23.52 31.1301 18.795 31.1301Z" stroke="#465BC8" stroke-width="1.5" stroke-linecap="round" stroke-linejoin="round"/>
<path d="M29.28 26.1502L25.11 23.2252V13.7602L29.28 10.8352C31.32 9.4102 33 10.2802 33 12.7852V24.2152C33 26.7202 31.32 27.5902 29.28 26.1502Z" stroke="#465BC8" stroke-width="1.5" stroke-linecap="round" stroke-linejoin="round"/>
<path d="M17.25 17C18.4926 17 19.5 15.9926 19.5 14.75C19.5 13.5074 18.4926 12.5 17.25 12.5C16.0074 12.5 15 13.5074 15 14.75C15 15.9926 16.0074 17 17.25 17Z" stroke="#465BC8" stroke-width="1.5" stroke-linecap="round" stroke-linejoin="round"/>
</svg>
