<svg width="32" height="32" viewBox="0 0 32 32" fill="none" xmlns="http://www.w3.org/2000/svg">
<path d="M5.87301 20.7018L11.913 26.7418C14.393 29.2218 18.4197 29.2218 20.913 26.7418L26.7663 20.8885C29.2463 18.4085 29.2463 14.3818 26.7663 11.8885L20.713 5.86182C19.4463 4.59516 17.6997 3.91516 15.913 4.00849L9.24634 4.32849C6.57967 4.44849 4.45967 6.56849 4.32634 9.22182L4.00634 15.8885C3.92634 17.6885 4.60634 19.4352 5.87301 20.7018Z" stroke="#7164F0" stroke-width="2" stroke-linecap="round" stroke-linejoin="round"/>
<path d="M12.9796 16.3019C14.8205 16.3019 16.3129 14.8095 16.3129 12.9686C16.3129 11.1276 14.8205 9.63525 12.9796 9.63525C11.1386 9.63525 9.64624 11.1276 9.64624 12.9686C9.64624 14.8095 11.1386 16.3019 12.9796 16.3019Z" stroke="#7164F0" stroke-width="2" stroke-linecap="round"/>
<path d="M17.6462 22.9686L22.9796 17.6353" stroke="#7164F0" stroke-width="2" stroke-miterlimit="10" stroke-linecap="round" stroke-linejoin="round"/>
</svg>
