<svg width="32" height="32" viewBox="0 0 32 32" fill="none" xmlns="http://www.w3.org/2000/svg">
<path d="M16.8799 3.3576L16.8399 3.45093L12.9733 12.4243H9.17328C8.26661 12.4243 7.39995 12.6109 6.61328 12.9443L8.94661 7.37093L8.99995 7.2376L9.09328 7.02426C9.11995 6.94426 9.14662 6.86426 9.18662 6.7976C10.9333 2.7576 12.9066 1.8376 16.8799 3.3576Z" stroke="#7164F0" stroke-width="2" stroke-linecap="round" stroke-linejoin="round"/>
<path d="M24.0665 12.6908C23.4665 12.5041 22.8265 12.4241 22.1865 12.4241H12.9731L16.8398 3.45076L16.8798 3.35742C17.0798 3.42409 17.2665 3.51742 17.4665 3.59742L20.4131 4.83742C22.0531 5.51742 23.1998 6.22409 23.8931 7.07742C24.0265 7.23742 24.1331 7.38409 24.2265 7.55742C24.3465 7.74409 24.4398 7.93076 24.4931 8.13076C24.5465 8.25076 24.5865 8.37076 24.6131 8.47742C24.9731 9.59742 24.7598 10.9708 24.0665 12.6908Z" stroke="#7164F0" stroke-width="2" stroke-linecap="round" stroke-linejoin="round"/>
<path d="M28.6955 18.9312V21.5312C28.6955 21.7979 28.6821 22.0646 28.6688 22.3312C28.4155 26.9846 25.8155 29.3312 20.8821 29.3312H10.4821C10.1621 29.3312 9.84213 29.3046 9.53546 29.2646C5.29546 28.9846 3.0288 26.7179 2.7488 22.4779C2.7088 22.1712 2.68213 21.8512 2.68213 21.5312V18.9312C2.68213 16.2512 4.3088 13.9446 6.6288 12.9446C7.4288 12.6112 8.28213 12.4246 9.1888 12.4246H22.2021C22.8555 12.4246 23.4955 12.5179 24.0821 12.6912C26.7355 13.5046 28.6955 15.9846 28.6955 18.9312Z" stroke="#7164F0" stroke-width="2" stroke-linecap="round" stroke-linejoin="round"/>
<path d="M8.9465 7.37085L6.61317 12.9442C4.29317 13.9442 2.6665 16.2508 2.6665 18.9309V15.0242C2.6665 11.2375 5.35984 8.07752 8.9465 7.37085Z" stroke="#7164F0" stroke-width="2" stroke-linecap="round" stroke-linejoin="round"/>
<path d="M28.6915 15.0235V18.9301C28.6915 15.9968 26.7448 13.5035 24.0781 12.7035C24.7715 10.9701 24.9715 9.61013 24.6381 8.47679C24.6115 8.35679 24.5715 8.23679 24.5181 8.13013C26.9981 9.41013 28.6915 12.0368 28.6915 15.0235Z" stroke="#7164F0" stroke-width="2" stroke-linecap="round" stroke-linejoin="round"/>
</svg>
