<svg width="12" height="15" viewBox="0 0 12 15" fill="none" xmlns="http://www.w3.org/2000/svg">
<path d="M4.66667 1.99984C4.47778 1.99984 4.31956 1.93584 4.192 1.80784C4.06444 1.67984 4.00044 1.52162 4 1.33317C3.99956 1.14473 4.06356 0.986504 4.192 0.858504C4.32044 0.730504 4.47867 0.666504 4.66667 0.666504H7.33333C7.52222 0.666504 7.68067 0.730504 7.80867 0.858504C7.93667 0.986504 8.00044 1.14473 8 1.33317C7.99956 1.52162 7.93556 1.68006 7.808 1.8085C7.68044 1.93695 7.52222 2.00073 7.33333 1.99984H4.66667ZM6 9.33317C6.18889 9.33317 6.34733 9.26917 6.47533 9.14117C6.60333 9.01317 6.66711 8.85495 6.66667 8.6665V5.99984C6.66667 5.81095 6.60267 5.65273 6.47467 5.52517C6.34667 5.39762 6.18844 5.33362 6 5.33317C5.81156 5.33273 5.65333 5.39673 5.52533 5.52517C5.39733 5.65361 5.33333 5.81184 5.33333 5.99984V8.6665C5.33333 8.85539 5.39733 9.01384 5.52533 9.14184C5.65333 9.26984 5.81156 9.33362 6 9.33317ZM6 14.6665C5.17778 14.6665 4.40267 14.5083 3.67467 14.1918C2.94667 13.8754 2.31067 13.4447 1.76667 12.8998C1.22267 12.3549 0.792222 11.7187 0.475333 10.9912C0.158444 10.2636 0 9.48873 0 8.6665C0 7.84428 0.158444 7.06917 0.475333 6.34117C0.792222 5.61317 1.22267 4.97717 1.76667 4.43317C2.31067 3.88917 2.94689 3.45873 3.67533 3.14184C4.40378 2.82495 5.17867 2.6665 6 2.6665C6.68889 2.6665 7.35 2.77762 7.98333 2.99984C8.61667 3.22206 9.21111 3.54428 9.76667 3.9665L10.2333 3.49984C10.3556 3.37762 10.5111 3.3165 10.7 3.3165C10.8889 3.3165 11.0444 3.37762 11.1667 3.49984C11.2889 3.62206 11.35 3.77762 11.35 3.9665C11.35 4.15539 11.2889 4.31095 11.1667 4.43317L10.7 4.89984C11.1222 5.45539 11.4444 6.04984 11.6667 6.68317C11.8889 7.3165 12 7.97762 12 8.6665C12 9.48873 11.8416 10.2638 11.5247 10.9918C11.2078 11.7198 10.7773 12.3558 10.2333 12.8998C9.68933 13.4438 9.05311 13.8745 8.32467 14.1918C7.59622 14.5092 6.82133 14.6674 6 14.6665ZM6 13.3332C7.28889 13.3332 8.38889 12.8776 9.3 11.9665C10.2111 11.0554 10.6667 9.95539 10.6667 8.6665C10.6667 7.37762 10.2111 6.27762 9.3 5.3665C8.38889 4.45539 7.28889 3.99984 6 3.99984C4.71111 3.99984 3.61111 4.45539 2.7 5.3665C1.78889 6.27762 1.33333 7.37762 1.33333 8.6665C1.33333 9.95539 1.78889 11.0554 2.7 11.9665C3.61111 12.8776 4.71111 13.3332 6 13.3332Z" fill="#527CFF"/>
</svg>
