<svg width="30" height="30" viewBox="0 0 30 30" fill="none" xmlns="http://www.w3.org/2000/svg">
<path d="M15 2.5C21.9038 2.5 27.5 8.09625 27.5 15C27.5 21.9037 21.9038 27.5 15 27.5C13.005 27.5028 11.0385 27.026 9.26626 26.11L4.48376 27.4438C4.21694 27.5182 3.93511 27.5204 3.66717 27.4501C3.39922 27.3798 3.15478 27.2395 2.9589 27.0436C2.76302 26.8477 2.62273 26.6033 2.55242 26.3353C2.48211 26.0674 2.4843 25.7856 2.55876 25.5188L3.89376 20.74C2.97545 18.9662 2.49741 16.9974 2.50001 15C2.50001 8.09625 8.09626 2.5 15 2.5ZM15 4.375C12.1821 4.375 9.47958 5.49442 7.487 7.48699C5.49443 9.47956 4.37501 12.1821 4.37501 15C4.37501 16.8375 4.84126 18.6037 5.71626 20.1712L5.90376 20.5087L4.51376 25.4888L9.49751 24.0987L9.83501 24.2863C11.253 25.0746 12.8327 25.5278 14.4529 25.611C16.0732 25.6942 17.691 25.4053 19.1823 24.7664C20.6736 24.1274 21.9988 23.1555 23.0562 21.925C24.1136 20.6945 24.8752 19.2383 25.2826 17.6678C25.69 16.0974 25.7323 14.4546 25.4063 12.8652C25.0803 11.2759 24.3947 9.78236 23.4021 8.49908C22.4094 7.21581 21.136 6.1769 19.6796 5.46203C18.2232 4.74716 16.6224 4.37531 15 4.375ZM10.9375 16.25H16.56C16.7975 16.2501 17.0262 16.3403 17.1997 16.5025C17.3733 16.6646 17.4789 16.8866 17.495 17.1236C17.5112 17.3606 17.4369 17.5949 17.287 17.7791C17.1371 17.9634 16.9228 18.0839 16.6875 18.1163L16.56 18.125H10.9375C10.7 18.1249 10.4713 18.0347 10.2978 17.8725C10.1242 17.7104 10.0187 17.4884 10.0025 17.2514C9.98629 17.0144 10.0607 16.7801 10.2106 16.5959C10.3604 16.4116 10.5747 16.2911 10.81 16.2587L10.9375 16.25ZM10.9375 11.875H19.0688C19.3062 11.8754 19.5346 11.9658 19.7079 12.1281C19.8813 12.2904 19.9866 12.5123 20.0026 12.7492C20.0186 12.9861 19.9442 13.2202 19.7943 13.4044C19.6444 13.5885 19.4302 13.7089 19.195 13.7413L19.0688 13.75H10.9375C10.7 13.7499 10.4713 13.6597 10.2978 13.4975C10.1242 13.3354 10.0187 13.1134 10.0025 12.8764C9.98629 12.6394 10.0607 12.4051 10.2106 12.2209C10.3604 12.0366 10.5747 11.9161 10.81 11.8837L10.9375 11.875Z" fill="black"/>
</svg>
