<svg width="20" height="21" viewBox="0 0 20 21" fill="none" xmlns="http://www.w3.org/2000/svg">
<path d="M14.1667 12.1667C14.3877 12.1667 14.5996 12.0789 14.7559 11.9226C14.9122 11.7663 15 11.5543 15 11.3333C15 11.1123 14.9122 10.9004 14.7559 10.7441C14.5996 10.5878 14.3877 10.5 14.1667 10.5C13.9457 10.5 13.7337 10.5878 13.5774 10.7441C13.4211 10.9004 13.3333 11.1123 13.3333 11.3333C13.3333 11.5543 13.4211 11.7663 13.5774 11.9226C13.7337 12.0789 13.9457 12.1667 14.1667 12.1667ZM14.1667 15.5C14.3877 15.5 14.5996 15.4122 14.7559 15.2559C14.9122 15.0996 15 14.8877 15 14.6667C15 14.4457 14.9122 14.2337 14.7559 14.0774C14.5996 13.9211 14.3877 13.8333 14.1667 13.8333C13.9457 13.8333 13.7337 13.9211 13.5774 14.0774C13.4211 14.2337 13.3333 14.4457 13.3333 14.6667C13.3333 14.8877 13.4211 15.0996 13.5774 15.2559C13.7337 15.4122 13.9457 15.5 14.1667 15.5ZM10.8333 11.3333C10.8333 11.5543 10.7455 11.7663 10.5893 11.9226C10.433 12.0789 10.221 12.1667 10 12.1667C9.77899 12.1667 9.56702 12.0789 9.41074 11.9226C9.25446 11.7663 9.16667 11.5543 9.16667 11.3333C9.16667 11.1123 9.25446 10.9004 9.41074 10.7441C9.56702 10.5878 9.77899 10.5 10 10.5C10.221 10.5 10.433 10.5878 10.5893 10.7441C10.7455 10.9004 10.8333 11.1123 10.8333 11.3333ZM10.8333 14.6667C10.8333 14.8877 10.7455 15.0996 10.5893 15.2559C10.433 15.4122 10.221 15.5 10 15.5C9.77899 15.5 9.56702 15.4122 9.41074 15.2559C9.25446 15.0996 9.16667 14.8877 9.16667 14.6667C9.16667 14.4457 9.25446 14.2337 9.41074 14.0774C9.56702 13.9211 9.77899 13.8333 10 13.8333C10.221 13.8333 10.433 13.9211 10.5893 14.0774C10.7455 14.2337 10.8333 14.4457 10.8333 14.6667ZM5.83333 12.1667C6.05435 12.1667 6.26631 12.0789 6.42259 11.9226C6.57887 11.7663 6.66667 11.5543 6.66667 11.3333C6.66667 11.1123 6.57887 10.9004 6.42259 10.7441C6.26631 10.5878 6.05435 10.5 5.83333 10.5C5.61232 10.5 5.40036 10.5878 5.24408 10.7441C5.0878 10.9004 5 11.1123 5 11.3333C5 11.5543 5.0878 11.7663 5.24408 11.9226C5.40036 12.0789 5.61232 12.1667 5.83333 12.1667ZM5.83333 15.5C6.05435 15.5 6.26631 15.4122 6.42259 15.2559C6.57887 15.0996 6.66667 14.8877 6.66667 14.6667C6.66667 14.4457 6.57887 14.2337 6.42259 14.0774C6.26631 13.9211 6.05435 13.8333 5.83333 13.8333C5.61232 13.8333 5.40036 13.9211 5.24408 14.0774C5.0878 14.2337 5 14.4457 5 14.6667C5 14.8877 5.0878 15.0996 5.24408 15.2559C5.40036 15.4122 5.61232 15.5 5.83333 15.5Z" fill="#527CFF"/>
<path fill-rule="evenodd" clip-rule="evenodd" d="M5.83331 1.9585C5.99907 1.9585 6.15805 2.02434 6.27526 2.14155C6.39247 2.25876 6.45831 2.41774 6.45831 2.5835V3.21933C7.00998 3.2085 7.61748 3.2085 8.28581 3.2085H11.7133C12.3825 3.2085 12.99 3.2085 13.5416 3.21933V2.5835C13.5416 2.41774 13.6075 2.25876 13.7247 2.14155C13.8419 2.02434 14.0009 1.9585 14.1666 1.9585C14.3324 1.9585 14.4914 2.02434 14.6086 2.14155C14.7258 2.25876 14.7916 2.41774 14.7916 2.5835V3.27266C15.0083 3.28933 15.2136 3.31044 15.4075 3.336C16.3841 3.46766 17.175 3.74433 17.7991 4.36766C18.4225 4.99183 18.6991 5.78266 18.8308 6.75933C18.9583 7.70933 18.9583 8.92183 18.9583 10.4535V12.2135C18.9583 13.7452 18.9583 14.9585 18.8308 15.9077C18.6991 16.8843 18.4225 17.6752 17.7991 18.2993C17.175 18.9227 16.3841 19.1993 15.4075 19.331C14.4575 19.4585 13.245 19.4585 11.7133 19.4585H8.28748C6.75581 19.4585 5.54248 19.4585 4.59331 19.331C3.61665 19.1993 2.82581 18.9227 2.20165 18.2993C1.57831 17.6752 1.30165 16.8843 1.16998 15.9077C1.04248 14.9577 1.04248 13.7452 1.04248 12.2135V10.4535C1.04248 8.92183 1.04248 7.7085 1.16998 6.75933C1.30165 5.78266 1.57831 4.99183 2.20165 4.36766C2.82581 3.74433 3.61665 3.46766 4.59331 3.336C4.78776 3.31044 4.99304 3.28933 5.20915 3.27266V2.5835C5.20915 2.41788 5.27488 2.25904 5.39191 2.14185C5.50894 2.02466 5.6677 1.95872 5.83331 1.9585ZM4.75831 4.57516C3.92081 4.68766 3.43748 4.89933 3.08498 5.25183C2.73248 5.60433 2.52081 6.08766 2.40831 6.92516C2.38943 7.06683 2.37331 7.21655 2.35998 7.37433H17.64C17.6266 7.21655 17.6105 7.06655 17.5916 6.92433C17.4791 6.08683 17.2675 5.6035 16.915 5.251C16.5625 4.8985 16.0791 4.68683 15.2408 4.57433C14.385 4.45933 13.2558 4.45766 11.6666 4.45766H8.33331C6.74415 4.45766 5.61581 4.46016 4.75831 4.57516ZM2.29165 10.5002C2.29165 9.7885 2.29165 9.16933 2.30248 8.62516H17.6975C17.7083 9.16933 17.7083 9.7885 17.7083 10.5002V12.1668C17.7083 13.756 17.7066 14.8852 17.5916 15.7418C17.4791 16.5793 17.2675 17.0627 16.915 17.4152C16.5625 17.7677 16.0791 17.9793 15.2408 18.0918C14.385 18.2068 13.2558 18.2085 11.6666 18.2085H8.33331C6.74415 18.2085 5.61581 18.2068 4.75831 18.0918C3.92081 17.9793 3.43748 17.7677 3.08498 17.4152C2.73248 17.0627 2.52081 16.5793 2.40831 15.741C2.29331 14.8852 2.29165 13.756 2.29165 12.1668V10.5002Z" fill="#527CFF"/>
</svg>
