<svg width="8" height="15" viewBox="0 0 8 15" fill="none" xmlns="http://www.w3.org/2000/svg">
<path fill-rule="evenodd" clip-rule="evenodd" d="M7.70701 6.79318C7.89448 6.98071 7.99979 7.23502 7.99979 7.50018C7.99979 7.76534 7.89448 8.01965 7.70701 8.20718L2.05001 13.8642C1.95776 13.9597 1.84742 14.0359 1.72541 14.0883C1.60341 14.1407 1.47219 14.1683 1.33941 14.1694C1.20663 14.1706 1.07495 14.1453 0.952054 14.095C0.829157 14.0447 0.717505 13.9705 0.623612 13.8766C0.529719 13.7827 0.455466 13.671 0.405185 13.5481C0.354904 13.4252 0.329603 13.2936 0.330757 13.1608C0.331911 13.028 0.359497 12.8968 0.411906 12.7748C0.464315 12.6528 0.540497 12.5424 0.636007 12.4502L5.58601 7.50018L0.636007 2.55018C0.453849 2.36158 0.353055 2.10898 0.355333 1.84678C0.357611 1.58458 0.46278 1.33377 0.648188 1.14836C0.833596 0.962954 1.08441 0.857785 1.34661 0.855507C1.6088 0.853228 1.86141 0.954022 2.05001 1.13618L7.70701 6.79318Z" fill="#527CFF"/>
</svg>
