<svg width="30" height="30" viewBox="0 0 30 30" fill="none" xmlns="http://www.w3.org/2000/svg">
<path d="M24.375 1.875H7.5C7.00272 1.875 6.52581 2.07254 6.17417 2.42417C5.82254 2.77581 5.625 3.25272 5.625 3.75V7.5H3.75V9.375H5.625V14.0625H3.75V15.9375H5.625V20.625H3.75V22.5H5.625V26.25C5.625 26.7473 5.82254 27.2242 6.17417 27.5758C6.52581 27.9275 7.00272 28.125 7.5 28.125H24.375C24.8723 28.125 25.3492 27.9275 25.7008 27.5758C26.0525 27.2242 26.25 26.7473 26.25 26.25V3.75C26.25 3.25272 26.0525 2.77581 25.7008 2.42417C25.3492 2.07254 24.8723 1.875 24.375 1.875ZM24.375 26.25H7.5V22.5H9.375V20.625H7.5V15.9375H9.375V14.0625H7.5V9.375H9.375V7.5H7.5V3.75H24.375V26.25Z" fill="black"/>
<path d="M13.125 7.5H20.625V9.375H13.125V7.5ZM13.125 14.0625H20.625V15.9375H13.125V14.0625ZM13.125 20.625H20.625V22.5H13.125V20.625Z" fill="black"/>
</svg>
