<svg width="25" height="26" viewBox="0 0 25 26" fill="none" xmlns="http://www.w3.org/2000/svg">
<path d="M11.4087 10.6719C11.8114 10.6719 12.1507 10.5326 12.4267 10.2539C12.7027 9.97606 12.8407 9.63536 12.8407 9.23177C12.8407 8.82908 12.7014 8.48973 12.4227 8.21373C12.1449 7.93774 11.8042 7.79974 11.4006 7.79974C10.9979 7.79974 10.6585 7.93909 10.3825 8.21781C10.1065 8.49562 9.96853 8.83632 9.96853 9.23991C9.96853 9.6426 10.1079 9.98194 10.3866 10.2579C10.6644 10.5339 11.0051 10.6719 11.4087 10.6719ZM23.9834 25.4904C23.3292 25.4904 22.2469 25.0682 20.7366 24.224C19.2263 23.3797 17.6069 22.3227 15.8785 21.0531C15.3446 21.2884 14.7877 21.4649 14.2076 21.5825C13.6267 21.6992 13.0317 21.7576 12.4227 21.7576C9.96582 21.7576 7.88677 20.907 6.18553 19.2058C4.48429 17.5045 3.63367 15.4255 3.63367 12.9686C3.63367 12.3596 3.69385 11.7592 3.8142 11.1674C3.93365 10.5756 4.11101 10.0127 4.34629 9.47881C3.09841 7.76852 2.06409 6.17224 1.24333 4.68999C0.422574 3.20774 0.0126464 2.14808 0.0135513 1.51102C0.0135513 1.21421 0.0958989 0.973047 0.260594 0.787539C0.426193 0.602031 0.637944 0.509277 0.895845 0.509277C1.25872 0.509277 1.92383 0.739126 2.89118 1.19882C3.85764 1.65671 4.96842 2.26572 6.22354 3.02585C6.3828 3.11996 6.48325 3.25796 6.52488 3.43985C6.5665 3.62174 6.54116 3.79186 6.44886 3.95022C6.35837 4.10858 6.22218 4.21355 6.04029 4.26513C5.8575 4.31581 5.68602 4.29409 5.52585 4.19998C4.8354 3.79458 4.16033 3.41904 3.50065 3.07336C2.84096 2.72677 2.18037 2.3992 1.51888 2.09062C2.01296 3.15932 2.55275 4.19681 3.13823 5.20308C3.72461 6.20844 4.35624 7.20294 5.03312 8.18659C5.82311 6.96495 6.85924 5.98583 8.14151 5.24923C9.42468 4.51353 10.8517 4.14568 12.4227 4.14568C14.8804 4.14568 16.9653 5.00173 18.6774 6.71384C20.3895 8.42594 21.2456 10.5109 21.2456 12.9686C21.2456 14.5405 20.8764 15.972 20.138 17.2633C19.3987 18.5547 18.4182 19.5953 17.1966 20.3853C18.1974 21.0794 19.2109 21.725 20.2371 22.3223C21.2632 22.9186 22.3193 23.4702 23.4052 23.9769C23.102 23.3209 22.7763 22.663 22.4279 22.0033C22.0777 21.3436 21.6999 20.6685 21.2945 19.9781C21.2013 19.8179 21.18 19.6415 21.2307 19.4487C21.2822 19.2578 21.3872 19.1157 21.5456 19.0225C21.7039 18.9302 21.879 18.9094 22.0709 18.9601C22.2627 19.0107 22.4043 19.1148 22.4957 19.2723C23.2477 20.5256 23.8509 21.6345 24.3051 22.5992C24.7594 23.5638 24.9865 24.2285 24.9865 24.5932C24.9865 24.8665 24.8942 25.0841 24.7096 25.2461C24.525 25.408 24.283 25.4895 23.9834 25.4904ZM14.7967 16.6756C15.0772 16.6756 15.313 16.5806 15.5039 16.3906C15.6939 16.2005 15.789 15.9652 15.789 15.6847C15.789 15.4042 15.6939 15.1685 15.5039 14.9775C15.3148 14.7875 15.0795 14.6925 14.7981 14.6925C14.5166 14.6925 14.2814 14.7875 14.0922 14.9775C13.9022 15.1667 13.8072 15.4019 13.8072 15.6834C13.8072 15.9648 13.9022 16.2001 14.0922 16.3892C14.2814 16.5792 14.5166 16.6742 14.7981 16.6742M16.5165 12.1596C16.7789 12.1596 16.9975 12.0737 17.1721 11.9017C17.3468 11.7298 17.4341 11.5126 17.4341 11.2502C17.4341 10.9878 17.3481 10.7692 17.1762 10.5946C17.0043 10.4199 16.7871 10.3326 16.5247 10.3326C16.2622 10.3326 16.0441 10.4186 15.8704 10.5905C15.6948 10.7615 15.6071 10.9787 15.6071 11.242C15.6071 11.5045 15.693 11.7225 15.865 11.8963C16.0369 12.0718 16.2541 12.1596 16.5165 12.1596ZM14.4777 19.974C12.7312 18.6483 11.1137 17.2321 9.62512 15.7254C8.13472 14.2179 6.72939 12.5913 5.40911 10.8457C5.26976 11.2113 5.16524 11.5642 5.09556 11.9044C5.02588 12.2429 4.99104 12.6125 4.99104 13.0134C5.0019 13.9943 5.20279 14.9422 5.59372 15.8571C5.98555 16.7711 6.51899 17.5615 7.19406 18.2284C7.86913 18.8945 8.64962 19.4193 9.53553 19.803C10.4214 20.1867 11.3553 20.383 12.3372 20.3921C12.6846 20.3921 13.0412 20.3573 13.4068 20.2876C13.7723 20.2179 14.1293 20.1125 14.4777 19.974ZM15.9627 19.4962C17.1355 18.8619 18.0829 17.9642 18.805 16.8032C19.5272 15.6422 19.8882 14.3527 19.8882 12.9347C19.8882 10.8688 19.1602 9.11322 17.7042 7.66807C16.2482 6.22292 14.4877 5.50125 12.4227 5.50306C11.0047 5.50306 9.72104 5.86005 8.5718 6.57403C7.42255 7.2871 6.5303 8.23002 5.89505 9.40279C7.30582 11.3303 8.85458 13.1374 10.5413 14.8241C12.2281 16.5109 14.0352 18.0674 15.9627 19.4962Z" fill="white"/>
</svg>
