<svg width="28" height="22" viewBox="0 0 28 22" fill="none" xmlns="http://www.w3.org/2000/svg">
<path d="M1.97363 16.5568V5.20488C1.97363 4.20131 2.3723 3.23884 3.08194 2.5292C3.79157 1.81957 4.75404 1.4209 5.75762 1.4209C6.76119 1.4209 7.72366 1.81957 8.4333 2.5292C9.14293 3.23884 9.5416 4.20131 9.5416 5.20488C9.5416 4.20131 9.94027 3.23884 10.6499 2.5292C11.3595 1.81957 12.322 1.4209 13.3256 1.4209C14.3292 1.4209 15.2916 1.81957 16.0013 2.5292C16.7109 3.23884 17.1096 4.20131 17.1096 5.20488V16.5568C17.1096 17.5604 17.5082 18.5229 18.2179 19.2325C18.9275 19.9421 19.89 20.3408 20.8935 20.3408C21.8971 20.3408 22.8596 19.9421 23.5692 19.2325C24.2789 18.5229 24.6775 17.5604 24.6775 16.5568V12.7728" stroke="white" stroke-width="2" stroke-linecap="round" stroke-linejoin="round"/>
<path d="M22.7856 14.665L24.6776 12.773L26.5695 14.665M9.54163 5.20508V16.557" stroke="white" stroke-width="2" stroke-linecap="round" stroke-linejoin="round"/>
</svg>
