<svg width="34" height="38" viewBox="0 0 34 38" fill="none" xmlns="http://www.w3.org/2000/svg">
<path fill-rule="evenodd" clip-rule="evenodd" d="M11.0594 26.5365L10.3314 36.2532C10.2802 36.936 10.8872 37.4063 11.4301 37.102C15.2741 34.9488 27.3153 27.0402 33.4181 9.65854C33.698 8.86121 32.946 8.14171 32.3039 8.59146C28.699 11.116 20.8205 16.3341 15.9518 17.328C15.9518 17.328 19.0697 15.1625 20.936 11.838C21.1189 11.5121 21.1037 11.095 20.8997 10.8008L14.094 0.991307C13.6906 0.409816 12.8629 0.650741 12.7172 1.39195L10.5985 12.173L0.653683 20.8525C0.155058 21.2875 0.256775 22.1666 0.832458 22.3995L11.0594 26.5365Z" fill="#EC82FF"/>
<path fill-rule="evenodd" clip-rule="evenodd" d="M28.6455 22.707C28.0157 23.5858 26.659 25.3935 25.4064 26.4982C25.156 26.719 25.1897 27.0895 25.477 27.2699L32.0955 31.4246C32.4939 31.6746 33.032 31.3778 32.9647 30.944C32.6569 28.9585 31.7698 24.8186 29.5274 22.6455C29.2769 22.403 28.8452 22.4285 28.6455 22.707Z" fill="#EC82FF"/>
</svg>
