<svg width="18" height="14" viewBox="0 0 18 14" fill="none" xmlns="http://www.w3.org/2000/svg">
<path d="M17.3333 3.2793V11.1668C17.3333 11.8045 17.0897 12.4181 16.6522 12.882C16.2148 13.346 15.6165 13.6252 14.98 13.6626L14.8333 13.6668H3.16663C2.52895 13.6668 1.91536 13.4232 1.45141 12.9857C0.987454 12.5483 0.708203 11.95 0.670793 11.3135L0.666626 11.1668V3.2793L8.53746 8.5268L8.63413 8.5818C8.74805 8.63746 8.87317 8.66639 8.99996 8.66639C9.12675 8.66639 9.25187 8.63746 9.36579 8.5818L9.46246 8.5268L17.3333 3.2793Z" fill="black" fill-opacity="0.4"/>
<path d="M14.8333 0.333496C15.7333 0.333496 16.5225 0.808496 16.9625 1.52266L8.99998 6.831L1.03748 1.52266C1.24647 1.18335 1.53355 0.898913 1.87479 0.693071C2.21602 0.487228 2.60152 0.365944 2.99914 0.339329L3.16664 0.333496H14.8333Z" fill="black" fill-opacity="0.4"/>
</svg>
