<svg width="32" height="31" viewBox="0 0 32 31" fill="none" xmlns="http://www.w3.org/2000/svg">
<path d="M17.469 0.299805V3.37482C24.1518 4.19685 28.8861 10.2708 28.0641 16.9536C27.3638 22.4947 23.0101 26.8941 17.469 27.5487V30.5932C25.8415 29.756 31.9307 22.3272 31.0934 13.9547C30.4084 6.72384 24.6694 1.01528 17.469 0.299805ZM14.4244 0.345473C11.456 0.634707 8.62452 1.77642 6.31065 3.6945L8.48752 5.94748C10.1925 4.57742 12.2476 3.6945 14.4244 3.39004V0.345473ZM4.16423 5.84092C2.26205 8.15146 1.09089 10.976 0.799988 13.9547H3.84455C4.13379 11.793 4.98627 9.73796 6.3411 8.01778L4.16423 5.84092ZM21.2747 10.149L13.846 17.5777L10.6187 14.3505L9.0051 15.9641L13.846 20.805L22.8883 11.7626L21.2747 10.149ZM0.815211 16.9993C1.11967 19.9829 2.29183 22.7992 4.17946 25.113L6.3411 22.9362C4.99669 21.2154 4.13966 19.1649 3.85978 16.9993H0.815211ZM8.48752 25.1739L6.31065 27.2594C8.61686 29.1812 11.4398 30.3781 14.4244 30.6998V27.6552C12.2588 27.3754 10.2082 26.5183 8.48752 25.1739Z" fill="white"/>
</svg>
