<svg width="26" height="30" viewBox="0 0 26 30" fill="none" xmlns="http://www.w3.org/2000/svg">
<path d="M9.61727 0.200268L5.85318 7.08415L12.7372 10.8483L13.986 8.56447L10.9185 6.88712C11.626 6.73729 12.3473 6.66194 13.0705 6.66232C18.7564 6.66232 23.3379 11.2438 23.3379 16.9297C23.3379 22.6157 18.7564 27.1972 13.0705 27.1972C7.38447 27.1972 2.80302 22.6157 2.80302 16.9297C2.80302 15.7396 3.0044 14.5981 3.37395 13.5366L1.03702 12.3681C0.4969 13.787 0.200012 15.3244 0.200012 16.9297C0.200012 24.0224 5.97776 29.8002 13.0705 29.8002C20.1632 29.8002 25.9409 24.0224 25.9409 16.9297C25.9409 9.83705 20.1632 4.0593 13.0705 4.0593C12.123 4.0593 11.1995 4.16343 10.3098 4.35923L11.9011 1.44892L9.61727 0.200268ZM17.1566 9.62743L12.4197 16.7327V25.028H13.7212V17.1268L18.2395 10.3493L17.1566 9.62743Z" fill="white"/>
</svg>
